<mxfile host="Electron" modified="2023-04-18T20:10:51.490Z" agent="Mozilla/5.0 (Windows NT 10.0; Win64; x64) AppleWebKit/537.36 (KHTML, like Gecko) draw.io/21.1.2 Chrome/106.0.5249.199 Electron/21.4.3 Safari/537.36" etag="lsnRsCb3f72qOofHTi25" version="21.1.2" type="device">
  <diagram name="Page-1" id="rqb8dVKcROuI79bmeieU">
    <mxGraphModel dx="10340" dy="5110" grid="1" gridSize="10" guides="1" tooltips="1" connect="1" arrows="1" fold="1" page="0" pageScale="1" pageWidth="1700" pageHeight="1100" math="0" shadow="0">
      <root>
        <mxCell id="0" />
        <mxCell id="1" parent="0" />
        <mxCell id="C16ASnKl_FtYkdsgSsSQ-1" style="html=1;overflow=block;blockSpacing=1;whiteSpace=wrap;shape=trapezoid;perimeter=trapezoidPerimeter;anchorPointDirection=0;flipV=1;fontSize=16.7;fontColor=#3a414a;spacing=3.8;strokeColor=#3a414a;strokeOpacity=100;rounded=1;absoluteArcSize=1;arcSize=9;rotation=-90;strokeWidth=2;lucidId=-flLs.cZDFG2;" parent="1" vertex="1">
          <mxGeometry x="-1470" y="1025" width="120" height="90" as="geometry" />
        </mxCell>
        <mxCell id="C16ASnKl_FtYkdsgSsSQ-2" value="MUX" style="html=1;overflow=block;blockSpacing=1;whiteSpace=wrap;shape=trapezoid;perimeter=trapezoidPerimeter;anchorPointDirection=0;flipV=1;fontSize=16.7;fontColor=#3a414a;spacing=3.8;strokeOpacity=100;rounded=1;absoluteArcSize=1;arcSize=9;strokeWidth=1.5;lucidId=-flLs.cZDFG2;fillColor=none;strokeColor=none;rotation=-360;align=right;" parent="C16ASnKl_FtYkdsgSsSQ-1" vertex="1">
          <mxGeometry x="0.125" y="-0.16666666666666666" width="90" height="120" relative="1" as="geometry" />
        </mxCell>
        <mxCell id="C16ASnKl_FtYkdsgSsSQ-17" value="01" style="html=1;overflow=block;blockSpacing=1;whiteSpace=wrap;fontSize=16.7;fontColor=#3a414a;spacing=3.8;strokeOpacity=0;fillOpacity=0;rounded=1;absoluteArcSize=1;arcSize=9;fillColor=#ffffff;strokeWidth=0.8;lucidId=uElL8NrTH-TC;" parent="C16ASnKl_FtYkdsgSsSQ-1" vertex="1">
          <mxGeometry x="15" y="30" width="30" height="30" as="geometry" />
        </mxCell>
        <mxCell id="_SDMGPXZtipDCqufldMR-18" value="10" style="html=1;overflow=block;blockSpacing=1;whiteSpace=wrap;fontSize=16.7;fontColor=#3a414a;spacing=3.8;strokeOpacity=0;fillOpacity=0;rounded=1;absoluteArcSize=1;arcSize=9;fillColor=#ffffff;strokeWidth=0.8;lucidId=uElL8NrTH-TC;" parent="C16ASnKl_FtYkdsgSsSQ-1" vertex="1">
          <mxGeometry x="15" y="60" width="30" height="30" as="geometry" />
        </mxCell>
        <mxCell id="oJpyM_X3onIZimsuUFzw-17" style="edgeStyle=orthogonalEdgeStyle;rounded=0;orthogonalLoop=1;jettySize=auto;html=1;exitX=0.5;exitY=0;exitDx=0;exitDy=0;entryX=0;entryY=0.5;entryDx=0;entryDy=0;entryPerimeter=0;fillColor=#60a917;strokeColor=#009900;strokeWidth=2.3;" parent="1" source="C16ASnKl_FtYkdsgSsSQ-3" target="C16ASnKl_FtYkdsgSsSQ-8" edge="1">
          <mxGeometry relative="1" as="geometry" />
        </mxCell>
        <mxCell id="oJpyM_X3onIZimsuUFzw-18" value="Old PC Address" style="edgeLabel;html=1;align=center;verticalAlign=middle;resizable=0;points=[];" parent="oJpyM_X3onIZimsuUFzw-17" vertex="1" connectable="0">
          <mxGeometry x="0.2973" y="-2" relative="1" as="geometry">
            <mxPoint as="offset" />
          </mxGeometry>
        </mxCell>
        <mxCell id="C16ASnKl_FtYkdsgSsSQ-3" value="PC" style="html=1;overflow=block;blockSpacing=1;whiteSpace=wrap;fontSize=16.7;fontColor=#3a414a;spacing=9;strokeColor=#3a414a;strokeOpacity=100;rounded=1;absoluteArcSize=1;arcSize=9;strokeWidth=1.5;lucidId=AhlLYERqUPD1;" parent="1" vertex="1">
          <mxGeometry x="-1320" y="1033" width="45" height="75" as="geometry" />
        </mxCell>
        <mxCell id="oJpyM_X3onIZimsuUFzw-3" style="edgeStyle=orthogonalEdgeStyle;rounded=1;orthogonalLoop=1;jettySize=auto;html=1;entryX=0.25;entryY=1;entryDx=0;entryDy=0;strokeWidth=2;fontSize=13;strokeColor=#1071E5;startArrow=oval;startFill=1;" parent="1" target="oJpyM_X3onIZimsuUFzw-2" edge="1">
          <mxGeometry relative="1" as="geometry">
            <mxPoint x="-1140" y="1070" as="sourcePoint" />
          </mxGeometry>
        </mxCell>
        <mxCell id="oJpyM_X3onIZimsuUFzw-19" value="Imd Check Bit [25]" style="edgeLabel;html=1;align=center;verticalAlign=middle;resizable=0;points=[];" parent="oJpyM_X3onIZimsuUFzw-3" vertex="1" connectable="0">
          <mxGeometry x="-0.1208" relative="1" as="geometry">
            <mxPoint y="-7" as="offset" />
          </mxGeometry>
        </mxCell>
        <mxCell id="C16ASnKl_FtYkdsgSsSQ-4" value="IC" style="html=1;overflow=block;blockSpacing=1;whiteSpace=wrap;shape=cylinder3;size=4;anchorPointDirection=0;boundedLbl=1;fontSize=16.7;fontColor=#3a414a;spacing=3.8;strokeColor=#3a414a;strokeOpacity=100;rounded=1;absoluteArcSize=1;arcSize=9;strokeWidth=1.5;lucidId=pllL6RdA1fUu;" parent="1" vertex="1">
          <mxGeometry x="-1222" y="1040" width="60" height="60" as="geometry" />
        </mxCell>
        <mxCell id="FRVEOWgXkrjnCXTNfwsk-32" value="FLAGS" style="edgeStyle=orthogonalEdgeStyle;rounded=0;orthogonalLoop=1;jettySize=auto;html=1;entryX=-0.075;entryY=0.684;entryDx=0;entryDy=0;entryPerimeter=0;fontSize=13;strokeWidth=2;exitX=1;exitY=0.5;exitDx=0;exitDy=0;exitPerimeter=0;" parent="1" source="oJpyM_X3onIZimsuUFzw-22" target="FRVEOWgXkrjnCXTNfwsk-19" edge="1">
          <mxGeometry relative="1" as="geometry">
            <mxPoint x="-478.07" y="1170" as="sourcePoint" />
            <mxPoint x="-246.61999999999972" y="1177.3999999999999" as="targetPoint" />
          </mxGeometry>
        </mxCell>
        <mxCell id="C16ASnKl_FtYkdsgSsSQ-5" value="Register File" style="html=1;overflow=block;blockSpacing=1;whiteSpace=wrap;shape=cylinder3;size=4;anchorPointDirection=0;boundedLbl=1;fontSize=16.7;fontColor=#3a414a;spacing=3.8;strokeColor=#3a414a;strokeOpacity=100;rounded=1;absoluteArcSize=1;arcSize=9;strokeWidth=2;lucidId=~nlLTZhfvCgq;verticalAlign=middle;" parent="1" vertex="1">
          <mxGeometry x="-762" y="788" width="285" height="308" as="geometry" />
        </mxCell>
        <mxCell id="C16ASnKl_FtYkdsgSsSQ-6" value="IF/ID" style="html=1;overflow=block;blockSpacing=1;whiteSpace=wrap;fontSize=16.7;fontColor=#3a414a;align=center;spacing=3.8;strokeColor=#3a414a;strokeOpacity=100;fillOpacity=100;rounded=1;absoluteArcSize=1;arcSize=9;fillColor=#ffffff;strokeWidth=2;lucidId=OqlLgfBqRZDj;" parent="1" vertex="1">
          <mxGeometry x="-1070" y="703" width="60" height="555" as="geometry" />
        </mxCell>
        <mxCell id="C16ASnKl_FtYkdsgSsSQ-8" value="" style="html=1;overflow=block;blockSpacing=1;whiteSpace=wrap;shape=mxgraph.flowchart.summing_function;fontSize=13;spacing=3.8;strokeColor=#3a414a;strokeOpacity=100;rounded=1;absoluteArcSize=1;arcSize=9;strokeWidth=2;lucidId=0slLmjls9X9R;" parent="1" vertex="1">
          <mxGeometry x="-1250" y="741" width="60" height="60" as="geometry" />
        </mxCell>
        <mxCell id="C16ASnKl_FtYkdsgSsSQ-9" value="" style="html=1;jettySize=18;whiteSpace=wrap;fontSize=13;strokeColor=#008a0e;strokeOpacity=100;strokeWidth=2.3;rounded=1;arcSize=12;edgeStyle=orthogonalEdgeStyle;startArrow=none;endArrow=block;endFill=1;exitX=0.5;exitY=-0.008000000000000007;exitPerimeter=0;entryX=-0.017;entryY=0.5;entryPerimeter=0;lucidId=~slL9aXBEKXz;" parent="1" source="C16ASnKl_FtYkdsgSsSQ-1" target="C16ASnKl_FtYkdsgSsSQ-3" edge="1">
          <mxGeometry width="100" height="100" relative="1" as="geometry">
            <Array as="points" />
          </mxGeometry>
        </mxCell>
        <mxCell id="C16ASnKl_FtYkdsgSsSQ-10" value="" style="html=1;jettySize=18;whiteSpace=wrap;fontSize=13;strokeColor=#008a0e;strokeOpacity=100;strokeWidth=2.3;rounded=1;arcSize=12;edgeStyle=orthogonalEdgeStyle;startArrow=none;endArrow=block;endFill=1;exitX=1.017;exitY=0.5;exitPerimeter=0;entryX=-0.012;entryY=0.5;entryPerimeter=0;lucidId=itlLJEvFeE9b;" parent="1" source="C16ASnKl_FtYkdsgSsSQ-3" target="C16ASnKl_FtYkdsgSsSQ-4" edge="1">
          <mxGeometry width="100" height="100" relative="1" as="geometry">
            <Array as="points" />
          </mxGeometry>
        </mxCell>
        <mxCell id="C16ASnKl_FtYkdsgSsSQ-14" value="New PC" style="html=1;jettySize=18;whiteSpace=wrap;fontSize=13;strokeColor=#008a0e;strokeOpacity=100;strokeWidth=2.3;rounded=1;arcSize=12;edgeStyle=orthogonalEdgeStyle;startArrow=none;endArrow=block;endFill=1;exitX=1.013;exitY=0.5;exitPerimeter=0;entryX=-0.012;entryY=0.123;entryPerimeter=0;lucidId=awlL-2TddRJu;" parent="1" source="C16ASnKl_FtYkdsgSsSQ-8" target="C16ASnKl_FtYkdsgSsSQ-6" edge="1">
          <mxGeometry width="100" height="100" relative="1" as="geometry">
            <Array as="points" />
          </mxGeometry>
        </mxCell>
        <mxCell id="C16ASnKl_FtYkdsgSsSQ-15" value="New PC Address" style="html=1;jettySize=18;whiteSpace=wrap;fontSize=13;strokeColor=#008a0e;strokeOpacity=100;strokeWidth=2.3;rounded=1;arcSize=12;edgeStyle=orthogonalEdgeStyle;startArrow=none;endArrow=block;endFill=1;exitX=1.013;exitY=0.5;exitPerimeter=0;entryX=-0.138;entryY=0.623;lucidId=zylLzsobmoqr;entryDx=0;entryDy=0;entryPerimeter=0;" parent="1" target="C16ASnKl_FtYkdsgSsSQ-16" edge="1">
          <mxGeometry width="100" height="100" relative="1" as="geometry">
            <Array as="points">
              <mxPoint x="-1160" y="771" />
              <mxPoint x="-1160" y="720" />
              <mxPoint x="-1500" y="720" />
              <mxPoint x="-1500" y="1044" />
            </Array>
            <mxPoint x="-1189.22" y="771" as="sourcePoint" />
            <mxPoint x="-1415.72" y="949.04" as="targetPoint" />
          </mxGeometry>
        </mxCell>
        <mxCell id="C16ASnKl_FtYkdsgSsSQ-16" value="00" style="html=1;overflow=block;blockSpacing=1;whiteSpace=wrap;fontSize=16.7;fontColor=#3a414a;spacing=3.8;strokeOpacity=0;fillOpacity=0;rounded=1;absoluteArcSize=1;arcSize=9;fillColor=#ffffff;strokeWidth=0.8;lucidId=IDlLDruL7s6Y;" parent="1" vertex="1">
          <mxGeometry x="-1455" y="1025" width="30" height="30" as="geometry" />
        </mxCell>
        <mxCell id="FRVEOWgXkrjnCXTNfwsk-25" value="" style="edgeStyle=orthogonalEdgeStyle;rounded=1;orthogonalLoop=1;jettySize=auto;html=1;exitX=0.851;exitY=0.862;exitDx=0;exitDy=0;entryX=0;entryY=0.5;entryDx=0;entryDy=0;fillColor=#e51400;strokeColor=#B20000;strokeWidth=2;fontSize=16;exitPerimeter=0;" parent="1" source="C16ASnKl_FtYkdsgSsSQ-18" target="FRVEOWgXkrjnCXTNfwsk-14" edge="1">
          <mxGeometry relative="1" as="geometry" />
        </mxCell>
        <mxCell id="FRVEOWgXkrjnCXTNfwsk-26" style="edgeStyle=orthogonalEdgeStyle;rounded=1;orthogonalLoop=1;jettySize=auto;html=1;exitX=0.625;exitY=0;exitDx=0;exitDy=0;entryX=-0.093;entryY=-0.356;entryDx=0;entryDy=0;entryPerimeter=0;fillColor=#e51400;strokeColor=#B20000;strokeWidth=2;" parent="1" source="C16ASnKl_FtYkdsgSsSQ-18" target="FRVEOWgXkrjnCXTNfwsk-13" edge="1">
          <mxGeometry relative="1" as="geometry" />
        </mxCell>
        <mxCell id="FRVEOWgXkrjnCXTNfwsk-27" style="edgeStyle=orthogonalEdgeStyle;rounded=1;orthogonalLoop=1;jettySize=auto;html=1;exitX=1;exitY=0.5;exitDx=0;exitDy=0;entryX=0;entryY=0.5;entryDx=0;entryDy=0;fillColor=#e51400;strokeColor=#B20000;strokeWidth=2;" parent="1" source="C16ASnKl_FtYkdsgSsSQ-18" target="FRVEOWgXkrjnCXTNfwsk-13" edge="1">
          <mxGeometry relative="1" as="geometry" />
        </mxCell>
        <mxCell id="te43sHLQZ3bOe-cXKWkI-26" style="edgeStyle=orthogonalEdgeStyle;rounded=0;orthogonalLoop=1;jettySize=auto;html=1;exitX=0.375;exitY=0;exitDx=0;exitDy=0;entryX=0;entryY=0.75;entryDx=0;entryDy=0;entryPerimeter=0;fillColor=#e51400;strokeColor=#B20000;strokeWidth=2;endArrow=none;endFill=0;" parent="1" source="C16ASnKl_FtYkdsgSsSQ-18" target="te43sHLQZ3bOe-cXKWkI-21" edge="1">
          <mxGeometry relative="1" as="geometry">
            <mxPoint x="-705" y="605" as="sourcePoint" />
            <Array as="points">
              <mxPoint x="-635" y="520" />
              <mxPoint x="-2280" y="520" />
              <mxPoint x="-2280" y="1435" />
              <mxPoint x="-1720" y="1435" />
              <mxPoint x="-1720" y="1757" />
            </Array>
          </mxGeometry>
        </mxCell>
        <mxCell id="te43sHLQZ3bOe-cXKWkI-27" value="CURRENT RET/RTI" style="edgeLabel;html=1;align=center;verticalAlign=middle;resizable=0;points=[];fontSize=13;" parent="te43sHLQZ3bOe-cXKWkI-26" vertex="1" connectable="0">
          <mxGeometry x="0.8062" y="-2" relative="1" as="geometry">
            <mxPoint x="1" as="offset" />
          </mxGeometry>
        </mxCell>
        <mxCell id="te43sHLQZ3bOe-cXKWkI-29" value="CURRENT RET/RTI" style="edgeLabel;html=1;align=center;verticalAlign=middle;resizable=0;points=[];fontSize=13;" parent="te43sHLQZ3bOe-cXKWkI-26" vertex="1" connectable="0">
          <mxGeometry x="-0.909" y="-3" relative="1" as="geometry">
            <mxPoint as="offset" />
          </mxGeometry>
        </mxCell>
        <mxCell id="C16ASnKl_FtYkdsgSsSQ-18" value="Control Unit" style="html=1;overflow=block;blockSpacing=1;whiteSpace=wrap;shape=hexagon;perimeter=hexagonPerimeter2;fontSize=16.7;fontColor=#3a414a;spacing=3.8;strokeColor=#3a414a;strokeOpacity=100;rounded=1;absoluteArcSize=1;arcSize=9;strokeWidth=2;lucidId=HFlLW7emXm0M;" parent="1" vertex="1">
          <mxGeometry x="-680" y="605" width="120" height="90" as="geometry" />
        </mxCell>
        <mxCell id="C16ASnKl_FtYkdsgSsSQ-19" value="INS" style="html=1;jettySize=18;whiteSpace=wrap;fontSize=13;strokeColor=#1071E5;strokeOpacity=100;strokeWidth=2.3;rounded=1;arcSize=12;edgeStyle=orthogonalEdgeStyle;startArrow=none;endArrow=block;endFill=1;exitX=1.013;exitY=0.5;exitPerimeter=0;lucidId=LFlLzWP7a~9a;" parent="1" source="C16ASnKl_FtYkdsgSsSQ-4" edge="1">
          <mxGeometry x="-0.1714" width="100" height="100" relative="1" as="geometry">
            <Array as="points" />
            <mxPoint x="-1070" y="1070" as="targetPoint" />
            <mxPoint as="offset" />
          </mxGeometry>
        </mxCell>
        <mxCell id="C16ASnKl_FtYkdsgSsSQ-20" value="Instruction" style="html=1;jettySize=18;whiteSpace=wrap;fontSize=14;strokeColor=#1071e5;strokeOpacity=100;strokeWidth=2.3;rounded=1;arcSize=12;edgeStyle=orthogonalEdgeStyle;startArrow=none;endArrow=block;endFill=1;exitX=1.012;exitY=0.5;exitPerimeter=0;lucidId=kHlL17ve3A9c;" parent="1" source="C16ASnKl_FtYkdsgSsSQ-6" edge="1">
          <mxGeometry width="100" height="100" relative="1" as="geometry">
            <Array as="points" />
            <mxPoint x="-920" y="980" as="targetPoint" />
          </mxGeometry>
        </mxCell>
        <mxCell id="C16ASnKl_FtYkdsgSsSQ-22" value="Read Address 2" style="html=1;overflow=block;blockSpacing=1;whiteSpace=wrap;fontSize=16.7;fontColor=#3a414a;spacing=3.8;strokeOpacity=0;fillOpacity=0;rounded=1;absoluteArcSize=1;arcSize=9;fillColor=#ffffff;strokeWidth=0.8;lucidId=HNlLmj.m_v0d;" parent="1" vertex="1">
          <mxGeometry x="-755" y="960" width="135" height="45" as="geometry" />
        </mxCell>
        <mxCell id="C16ASnKl_FtYkdsgSsSQ-24" value="&lt;font style=&quot;font-size: 16px;&quot;&gt;Rs1 3 bits inst[24:22] &lt;/font&gt;" style="html=1;overflow=block;blockSpacing=1;whiteSpace=wrap;fontSize=15;fontColor=#3a414a;spacing=3.8;strokeOpacity=0;fillOpacity=0;rounded=1;absoluteArcSize=1;arcSize=9;fillColor=#ffffff;strokeWidth=0.8;lucidId=dPlLPdkHVlRl;" parent="1" vertex="1">
          <mxGeometry x="-933" y="886" width="180" height="45" as="geometry" />
        </mxCell>
        <mxCell id="C16ASnKl_FtYkdsgSsSQ-25" value="Rs2 3 bits inst[21:19]" style="html=1;overflow=block;blockSpacing=1;whiteSpace=wrap;fontSize=15;fontColor=#3a414a;spacing=3.8;strokeOpacity=0;fillOpacity=0;rounded=1;absoluteArcSize=1;arcSize=9;fillColor=#ffffff;strokeWidth=0.8;lucidId=XPlLl9TwbZoW;" parent="1" vertex="1">
          <mxGeometry x="-938" y="947" width="180" height="45" as="geometry" />
        </mxCell>
        <mxCell id="C16ASnKl_FtYkdsgSsSQ-27" value="" style="html=1;overflow=block;blockSpacing=1;whiteSpace=wrap;fontSize=13;spacing=0;strokeColor=#1071e5;strokeOpacity=100;rounded=1;absoluteArcSize=1;arcSize=9;rotation=-90;strokeWidth=2.3;lucidId=vYlLArbLvh4B;" parent="1" vertex="1">
          <mxGeometry x="-1242" y="1032" width="644" height="2" as="geometry" />
        </mxCell>
        <mxCell id="C16ASnKl_FtYkdsgSsSQ-28" value="" style="html=1;jettySize=18;whiteSpace=wrap;fontSize=13;strokeColor=#1071e5;strokeOpacity=100;strokeWidth=2.3;rounded=1;arcSize=12;edgeStyle=orthogonalEdgeStyle;startArrow=none;endArrow=block;endFill=1;exitX=1;exitY=0.471;exitPerimeter=0;entryX=0.003;entryY=0.5;entryPerimeter=0;lucidId=o1lLS86.JznV;horizontal=1;" parent="1" source="C16ASnKl_FtYkdsgSsSQ-27" target="C16ASnKl_FtYkdsgSsSQ-18" edge="1">
          <mxGeometry width="100" height="100" relative="1" as="geometry">
            <Array as="points">
              <mxPoint x="-920" y="650" />
            </Array>
          </mxGeometry>
        </mxCell>
        <mxCell id="C16ASnKl_FtYkdsgSsSQ-29" value="" style="html=1;jettySize=18;whiteSpace=wrap;fontSize=13;strokeColor=#008a0e;strokeOpacity=100;strokeWidth=2.3;rounded=1;arcSize=12;edgeStyle=orthogonalEdgeStyle;startArrow=none;endArrow=block;endFill=1;exitX=0.769;exitY=1;exitPerimeter=0;entryX=-0.003;entryY=0.234;entryPerimeter=0;lucidId=Z2lLqHrNaLUb;" parent="1" source="C16ASnKl_FtYkdsgSsSQ-27" target="C16ASnKl_FtYkdsgSsSQ-5" edge="1">
          <mxGeometry width="100" height="100" relative="1" as="geometry">
            <Array as="points" />
          </mxGeometry>
        </mxCell>
        <mxCell id="C16ASnKl_FtYkdsgSsSQ-30" value="" style="html=1;jettySize=18;whiteSpace=wrap;fontSize=13;strokeColor=#008a0e;strokeOpacity=100;strokeWidth=2.3;rounded=1;arcSize=12;edgeStyle=orthogonalEdgeStyle;startArrow=none;endArrow=block;endFill=1;exitX=0.67;exitY=1;exitPerimeter=0;entryX=-0.003;entryY=0.442;entryPerimeter=0;lucidId=n3lLNkoSwFRp;" parent="1" source="C16ASnKl_FtYkdsgSsSQ-27" target="C16ASnKl_FtYkdsgSsSQ-5" edge="1">
          <mxGeometry width="100" height="100" relative="1" as="geometry">
            <Array as="points" />
          </mxGeometry>
        </mxCell>
        <mxCell id="C16ASnKl_FtYkdsgSsSQ-31" value="Read Address 1" style="html=1;overflow=block;blockSpacing=1;whiteSpace=wrap;fontSize=16.7;fontColor=#3a414a;spacing=3.8;strokeOpacity=0;fillOpacity=0;rounded=1;absoluteArcSize=1;arcSize=9;fillColor=#ffffff;strokeWidth=0.8;lucidId=V3lLvln6wsRt;" parent="1" vertex="1">
          <mxGeometry x="-754" y="890" width="135" height="45" as="geometry" />
        </mxCell>
        <mxCell id="C16ASnKl_FtYkdsgSsSQ-32" value="" style="html=1;jettySize=18;whiteSpace=wrap;fontSize=13;strokeColor=#3a414a;strokeOpacity=100;strokeWidth=2.3;rounded=1;arcSize=12;edgeStyle=orthogonalEdgeStyle;startArrow=none;endArrow=block;endFill=1;exitX=0;exitY=0.5;exitPerimeter=0;lucidId=g5lLF-SeTRF8;" parent="1" source="C16ASnKl_FtYkdsgSsSQ-27" target="FRVEOWgXkrjnCXTNfwsk-19" edge="1">
          <mxGeometry x="-0.28" width="100" height="100" relative="1" as="geometry">
            <Array as="points">
              <mxPoint x="-920" y="1370" />
            </Array>
            <mxPoint x="-370" y="1360" as="targetPoint" />
            <mxPoint x="-1" as="offset" />
          </mxGeometry>
        </mxCell>
        <mxCell id="C16ASnKl_FtYkdsgSsSQ-34" value="Rd Data" style="html=1;jettySize=18;whiteSpace=wrap;fontSize=13;strokeColor=#3a414a;strokeOpacity=100;strokeWidth=2.3;rounded=1;arcSize=12;edgeStyle=orthogonalEdgeStyle;startArrow=none;endArrow=block;endFill=1;exitX=1.003;exitY=0.234;exitPerimeter=0;entryX=-0.019;entryY=0.187;entryPerimeter=0;lucidId=48lLNDbQzIFY;entryDx=0;entryDy=0;" parent="1" source="C16ASnKl_FtYkdsgSsSQ-5" target="FRVEOWgXkrjnCXTNfwsk-19" edge="1">
          <mxGeometry width="100" height="100" relative="1" as="geometry">
            <Array as="points" />
            <mxPoint x="-316.3600000000001" y="831.1999999999998" as="targetPoint" />
          </mxGeometry>
        </mxCell>
        <mxCell id="C16ASnKl_FtYkdsgSsSQ-35" value="Rs1 Data" style="html=1;jettySize=18;whiteSpace=wrap;fontSize=13;strokeColor=#3a414a;strokeOpacity=100;strokeWidth=2.3;rounded=1;arcSize=12;edgeStyle=orthogonalEdgeStyle;startArrow=none;endArrow=block;endFill=1;exitX=1.003;exitY=0.429;exitPerimeter=0;entryX=0.02;entryY=0.3;entryPerimeter=0;lucidId=.8lLdFjXSKPo;entryDx=0;entryDy=0;" parent="1" source="C16ASnKl_FtYkdsgSsSQ-5" target="FRVEOWgXkrjnCXTNfwsk-19" edge="1">
          <mxGeometry width="100" height="100" relative="1" as="geometry">
            <Array as="points" />
            <mxPoint x="-316.72000000000025" y="892.8199999999999" as="targetPoint" />
          </mxGeometry>
        </mxCell>
        <mxCell id="C16ASnKl_FtYkdsgSsSQ-38" value="New PC Address" style="html=1;jettySize=18;whiteSpace=wrap;fontSize=15;strokeColor=#008a0e;strokeOpacity=100;strokeWidth=2.3;rounded=1;arcSize=12;edgeStyle=orthogonalEdgeStyle;startArrow=none;endArrow=block;endFill=1;lucidId=4-lLHI4y~1R1;exitX=1.004;exitY=0.082;exitDx=0;exitDy=0;exitPerimeter=0;entryX=0;entryY=0.071;entryDx=0;entryDy=0;entryPerimeter=0;" parent="1" source="C16ASnKl_FtYkdsgSsSQ-6" target="FRVEOWgXkrjnCXTNfwsk-19" edge="1">
          <mxGeometry width="100" height="100" relative="1" as="geometry">
            <Array as="points">
              <mxPoint x="-1010" y="750" />
            </Array>
            <mxPoint x="-980" y="740" as="sourcePoint" />
            <mxPoint x="-320" y="750" as="targetPoint" />
          </mxGeometry>
        </mxCell>
        <mxCell id="C16ASnKl_FtYkdsgSsSQ-41" value="Read Address dest" style="html=1;overflow=block;blockSpacing=1;whiteSpace=wrap;fontSize=16.7;fontColor=#3a414a;spacing=3.8;strokeOpacity=0;fillOpacity=0;rounded=1;absoluteArcSize=1;arcSize=9;fillColor=#ffffff;strokeWidth=0.8;lucidId=_fmLrhTLbow0;" parent="1" vertex="1">
          <mxGeometry x="-758" y="834.5" width="162" height="48" as="geometry" />
        </mxCell>
        <mxCell id="C16ASnKl_FtYkdsgSsSQ-42" value="" style="html=1;jettySize=18;whiteSpace=wrap;fontSize=13;strokeColor=#008a0e;strokeOpacity=100;strokeWidth=2.3;rounded=1;arcSize=12;edgeStyle=orthogonalEdgeStyle;startArrow=oval;endArrow=block;endFill=1;entryX=0.061;entryY=0.829;entryPerimeter=0;lucidId=_hmLU3yBh-IQ;startFill=1;entryDx=0;entryDy=0;" parent="1" target="FRVEOWgXkrjnCXTNfwsk-19" edge="1">
          <mxGeometry x="0.4091" y="-2" width="100" height="100" relative="1" as="geometry">
            <Array as="points">
              <mxPoint x="-890" y="1280" />
            </Array>
            <mxPoint x="-890" y="861" as="sourcePoint" />
            <mxPoint x="-384.3600000000001" y="1271.6" as="targetPoint" />
            <mxPoint as="offset" />
          </mxGeometry>
        </mxCell>
        <mxCell id="C16ASnKl_FtYkdsgSsSQ-43" value="Rs2 Data" style="html=1;jettySize=18;whiteSpace=wrap;fontSize=13;strokeColor=#3a414a;strokeOpacity=100;strokeWidth=2.3;rounded=1;arcSize=12;edgeStyle=orthogonalEdgeStyle;startArrow=none;endArrow=block;endFill=1;exitX=1.003;exitY=0.626;exitPerimeter=0;entryX=0;entryY=0.371;entryPerimeter=0;lucidId=ZimLu~.ZLcDi;entryDx=0;entryDy=0;" parent="1" source="C16ASnKl_FtYkdsgSsSQ-5" target="FRVEOWgXkrjnCXTNfwsk-19" edge="1">
          <mxGeometry width="100" height="100" relative="1" as="geometry">
            <Array as="points" />
            <mxPoint x="-316.72000000000025" y="957.5999999999999" as="targetPoint" />
          </mxGeometry>
        </mxCell>
        <mxCell id="oJpyM_X3onIZimsuUFzw-41" value="New Flags" style="edgeStyle=orthogonalEdgeStyle;rounded=0;orthogonalLoop=1;jettySize=auto;html=1;exitX=1;exitY=1;exitDx=0;exitDy=0;entryX=-0.051;entryY=0.626;entryDx=0;entryDy=0;entryPerimeter=0;strokeWidth=2;fontSize=14;" parent="1" source="C16ASnKl_FtYkdsgSsSQ-56" edge="1">
          <mxGeometry relative="1" as="geometry">
            <mxPoint x="718.4099999999999" y="1119.5" as="targetPoint" />
          </mxGeometry>
        </mxCell>
        <mxCell id="oJpyM_X3onIZimsuUFzw-42" value="Result" style="edgeStyle=orthogonalEdgeStyle;rounded=0;orthogonalLoop=1;jettySize=auto;html=1;exitX=1;exitY=0.25;exitDx=0;exitDy=0;fontSize=14;strokeWidth=2;" parent="1" source="C16ASnKl_FtYkdsgSsSQ-56" edge="1">
          <mxGeometry relative="1" as="geometry">
            <mxPoint x="720" y="961.0769230769231" as="targetPoint" />
          </mxGeometry>
        </mxCell>
        <mxCell id="oJpyM_X3onIZimsuUFzw-45" value="Branching Result" style="edgeStyle=orthogonalEdgeStyle;rounded=1;orthogonalLoop=1;jettySize=auto;html=1;entryX=0;entryY=0.75;entryDx=0;entryDy=0;entryPerimeter=0;fillColor=#e51400;strokeColor=#B20000;strokeWidth=2;fontSize=14;exitX=0.5;exitY=1;exitDx=0;exitDy=0;" parent="1" source="C16ASnKl_FtYkdsgSsSQ-56" target="oJpyM_X3onIZimsuUFzw-32" edge="1">
          <mxGeometry relative="1" as="geometry">
            <mxPoint x="240" y="1260" as="sourcePoint" />
          </mxGeometry>
        </mxCell>
        <mxCell id="C16ASnKl_FtYkdsgSsSQ-56" value="ALU" style="html=1;overflow=block;blockSpacing=1;whiteSpace=wrap;shape=parallelogram;perimeter=parallelogramPerimeter;anchorPointDirection=0;fontSize=16.7;fontColor=#3a414a;spacing=3.8;strokeColor=#3a414a;strokeOpacity=100;rounded=1;absoluteArcSize=1;arcSize=9;strokeWidth=2;lucidId=fBmLQBwmav0-;" parent="1" vertex="1">
          <mxGeometry x="30" y="882.5" width="394" height="285" as="geometry" />
        </mxCell>
        <mxCell id="VIZNuoK_pahrdxBtINAy-2" value="2nd Operand" style="edgeStyle=orthogonalEdgeStyle;rounded=1;orthogonalLoop=1;jettySize=auto;html=1;exitX=0.5;exitY=1;exitDx=0;exitDy=0;strokeWidth=2;" parent="1" edge="1">
          <mxGeometry relative="1" as="geometry">
            <mxPoint x="-70" y="1040" as="sourcePoint" />
            <mxPoint x="64.25263157894733" y="1040" as="targetPoint" />
            <Array as="points">
              <mxPoint x="19" y="1040" />
              <mxPoint x="19" y="1040" />
            </Array>
          </mxGeometry>
        </mxCell>
        <mxCell id="C16ASnKl_FtYkdsgSsSQ-57" style="html=1;overflow=block;blockSpacing=1;whiteSpace=wrap;shape=trapezoid;perimeter=trapezoidPerimeter;anchorPointDirection=0;flipV=1;fontSize=16.7;fontColor=#3a414a;spacing=3.8;strokeColor=#3a414a;strokeOpacity=100;rounded=1;absoluteArcSize=1;arcSize=9;rotation=-90;strokeWidth=2;lucidId=eCmLYlLbR1Ar;" parent="1" vertex="1">
          <mxGeometry x="-174" y="995" width="120" height="90" as="geometry" />
        </mxCell>
        <mxCell id="C16ASnKl_FtYkdsgSsSQ-58" value="MUX" style="html=1;overflow=block;blockSpacing=1;whiteSpace=wrap;shape=trapezoid;perimeter=trapezoidPerimeter;anchorPointDirection=0;flipV=1;fontSize=16.7;fontColor=#3a414a;spacing=3.8;strokeOpacity=100;rounded=1;absoluteArcSize=1;arcSize=9;strokeWidth=1.5;lucidId=eCmLYlLbR1Ar;fillColor=none;strokeColor=none;rotation=-360;" parent="C16ASnKl_FtYkdsgSsSQ-57" vertex="1">
          <mxGeometry x="0.125" y="-0.16666666666666666" width="90" height="120" relative="1" as="geometry" />
        </mxCell>
        <mxCell id="C16ASnKl_FtYkdsgSsSQ-63" value="0" style="html=1;overflow=block;blockSpacing=1;whiteSpace=wrap;fontSize=16.7;fontColor=#3a414a;spacing=3.8;strokeOpacity=0;fillOpacity=0;rounded=1;absoluteArcSize=1;arcSize=9;fillColor=#ffffff;strokeWidth=0.8;lucidId=WRmLaLrrVqPS;" parent="C16ASnKl_FtYkdsgSsSQ-57" vertex="1">
          <mxGeometry x="20" y="7" width="30" height="30" as="geometry" />
        </mxCell>
        <mxCell id="C16ASnKl_FtYkdsgSsSQ-64" value="1" style="html=1;overflow=block;blockSpacing=1;whiteSpace=wrap;fontSize=16.7;fontColor=#3a414a;spacing=3.8;strokeOpacity=0;fillOpacity=0;rounded=1;absoluteArcSize=1;arcSize=9;fillColor=#ffffff;strokeWidth=0.8;lucidId=9RmLGIltzn3M;" parent="C16ASnKl_FtYkdsgSsSQ-57" vertex="1">
          <mxGeometry x="20" y="60" width="30" height="30" as="geometry" />
        </mxCell>
        <mxCell id="C16ASnKl_FtYkdsgSsSQ-59" value="" style="html=1;jettySize=18;whiteSpace=wrap;fontSize=13;strokeColor=#008a0e;strokeOpacity=100;strokeWidth=2.3;rounded=1;arcSize=12;edgeStyle=orthogonalEdgeStyle;startArrow=none;endArrow=block;endFill=1;lucidId=tFmLmMizP72i;entryX=-0.002;entryY=0.635;entryDx=0;entryDy=0;entryPerimeter=0;" parent="1" target="C16ASnKl_FtYkdsgSsSQ-5" edge="1">
          <mxGeometry width="100" height="100" relative="1" as="geometry">
            <Array as="points">
              <mxPoint x="-920" y="984" />
              <mxPoint x="-841" y="984" />
            </Array>
            <mxPoint x="-920" y="980" as="sourcePoint" />
            <mxPoint x="-780" y="980" as="targetPoint" />
          </mxGeometry>
        </mxCell>
        <mxCell id="C16ASnKl_FtYkdsgSsSQ-62" value="Rs1/1st Operand" style="html=1;jettySize=18;whiteSpace=wrap;fontSize=13;strokeColor=#3a414a;strokeOpacity=100;strokeWidth=3;rounded=1;arcSize=12;edgeStyle=orthogonalEdgeStyle;startArrow=oval;endArrow=block;endFill=1;lucidId=cJmLwLXzHCif;entryX=0.174;entryY=0.132;entryDx=0;entryDy=0;entryPerimeter=0;startFill=1;" parent="1" target="C16ASnKl_FtYkdsgSsSQ-56" edge="1">
          <mxGeometry x="-0.2211" width="100" height="100" relative="1" as="geometry">
            <Array as="points">
              <mxPoint y="900" />
              <mxPoint y="920" />
            </Array>
            <mxPoint y="890" as="sourcePoint" />
            <mxPoint as="offset" />
          </mxGeometry>
        </mxCell>
        <mxCell id="C16ASnKl_FtYkdsgSsSQ-65" value="Rs2 Data" style="html=1;jettySize=18;whiteSpace=wrap;fontSize=13;strokeColor=#3a414a;strokeOpacity=100;strokeWidth=2;rounded=1;arcSize=12;edgeStyle=orthogonalEdgeStyle;startArrow=oval;endArrow=block;endFill=1;entryX=0.704;entryY=1.008;entryPerimeter=0;lucidId=pSmLz75eP1NC;startFill=1;" parent="1" target="C16ASnKl_FtYkdsgSsSQ-57" edge="1">
          <mxGeometry width="100" height="100" relative="1" as="geometry">
            <Array as="points">
              <mxPoint x="-220" y="1016" />
            </Array>
            <mxPoint x="-220" y="890" as="sourcePoint" />
          </mxGeometry>
        </mxCell>
        <mxCell id="VIZNuoK_pahrdxBtINAy-1" value="Imm/ Offset" style="endArrow=classic;html=1;rounded=1;exitX=1.031;exitY=0.956;exitDx=0;exitDy=0;exitPerimeter=0;edgeStyle=orthogonalEdgeStyle;elbow=vertical;strokeWidth=2;fontSize=13;" parent="1" source="FRVEOWgXkrjnCXTNfwsk-19" edge="1">
          <mxGeometry x="0.5343" width="50" height="50" relative="1" as="geometry">
            <mxPoint x="-256.17999999999984" y="1368.4" as="sourcePoint" />
            <mxPoint x="-160" y="1080" as="targetPoint" />
            <Array as="points">
              <mxPoint x="-258" y="1368" />
              <mxPoint x="-190" y="1368" />
              <mxPoint x="-190" y="1080" />
              <mxPoint x="-160" y="1080" />
            </Array>
            <mxPoint y="-1" as="offset" />
          </mxGeometry>
        </mxCell>
        <mxCell id="FRVEOWgXkrjnCXTNfwsk-11" value="" style="swimlane;fontStyle=0;childLayout=stackLayout;horizontal=1;startSize=25;horizontalStack=0;resizeParent=1;resizeParentMax=0;resizeLast=0;collapsible=1;marginBottom=0;whiteSpace=wrap;html=1;strokeWidth=2;" parent="1" vertex="1">
          <mxGeometry x="-310" y="530" width="50" height="870" as="geometry">
            <mxRectangle x="1140" y="975" width="50" height="40" as="alternateBounds" />
          </mxGeometry>
        </mxCell>
        <mxCell id="FRVEOWgXkrjnCXTNfwsk-12" value="WB" style="text;strokeColor=#000000;fillColor=none;align=left;verticalAlign=middle;spacingLeft=4;spacingRight=4;overflow=hidden;points=[[0,0.5],[1,0.5]];portConstraint=eastwest;rotatable=0;whiteSpace=wrap;html=1;strokeWidth=2;" parent="FRVEOWgXkrjnCXTNfwsk-11" vertex="1">
          <mxGeometry y="25" width="50" height="45" as="geometry" />
        </mxCell>
        <mxCell id="FRVEOWgXkrjnCXTNfwsk-13" value="ME" style="text;strokeColor=#000000;fillColor=none;align=left;verticalAlign=middle;spacingLeft=4;spacingRight=4;overflow=hidden;points=[[0,0.5],[1,0.5]];portConstraint=eastwest;rotatable=0;whiteSpace=wrap;html=1;strokeWidth=2;" parent="FRVEOWgXkrjnCXTNfwsk-11" vertex="1">
          <mxGeometry y="70" width="50" height="45" as="geometry" />
        </mxCell>
        <mxCell id="FRVEOWgXkrjnCXTNfwsk-14" value="EX" style="text;strokeColor=#000000;fillColor=none;align=left;verticalAlign=middle;spacingLeft=4;spacingRight=4;overflow=hidden;points=[[0,0.5],[1,0.5]];portConstraint=eastwest;rotatable=0;whiteSpace=wrap;html=1;strokeWidth=2;" parent="FRVEOWgXkrjnCXTNfwsk-11" vertex="1">
          <mxGeometry y="115" width="50" height="55" as="geometry" />
        </mxCell>
        <mxCell id="FRVEOWgXkrjnCXTNfwsk-19" value="ID/EX" style="text;strokeColor=#000000;fillColor=none;align=center;verticalAlign=middle;spacingLeft=4;spacingRight=4;overflow=hidden;points=[[0,0.5],[1,0.5]];portConstraint=eastwest;rotatable=0;whiteSpace=wrap;html=1;strokeWidth=2;" parent="FRVEOWgXkrjnCXTNfwsk-11" vertex="1">
          <mxGeometry y="170" width="50" height="700" as="geometry" />
        </mxCell>
        <mxCell id="FRVEOWgXkrjnCXTNfwsk-31" value="Imm/Src Selector" style="edgeStyle=orthogonalEdgeStyle;rounded=1;orthogonalLoop=1;jettySize=auto;html=1;exitX=1;exitY=0.5;exitDx=0;exitDy=0;fillColor=#e51400;strokeColor=#B20000;strokeWidth=2;fontSize=13;entryX=0.433;entryY=0.933;entryDx=0;entryDy=0;entryPerimeter=0;" parent="1" source="FRVEOWgXkrjnCXTNfwsk-14" target="C16ASnKl_FtYkdsgSsSQ-58" edge="1">
          <mxGeometry x="0.129" y="20" relative="1" as="geometry">
            <mxPoint x="-70" y="975" as="targetPoint" />
            <Array as="points">
              <mxPoint x="-40" y="673" />
              <mxPoint x="-40" y="940" />
              <mxPoint x="-120" y="940" />
            </Array>
            <mxPoint as="offset" />
          </mxGeometry>
        </mxCell>
        <mxCell id="FRVEOWgXkrjnCXTNfwsk-33" value="Rd 3 bits inst[18:16] " style="html=1;overflow=block;blockSpacing=1;whiteSpace=wrap;fontSize=15;fontColor=#3a414a;align=left;spacing=3.8;verticalAlign=top;strokeColor=none;fillOpacity=0;fillColor=#ffffff;strokeWidth=0;lucidId=KmmL~SCXfO4W;" parent="1" vertex="1">
          <mxGeometry x="-910" y="830" width="165" height="28" as="geometry" />
        </mxCell>
        <mxCell id="FRVEOWgXkrjnCXTNfwsk-38" value="&lt;br style=&quot;border-color: var(--border-color); font-size: 14px;&quot;&gt;OP 6 bit inst[31:26]" style="text;html=1;align=center;verticalAlign=middle;resizable=0;points=[];autosize=1;strokeColor=none;fillColor=none;fontSize=14;" parent="1" vertex="1">
          <mxGeometry x="-880" y="600" width="140" height="50" as="geometry" />
        </mxCell>
        <mxCell id="FRVEOWgXkrjnCXTNfwsk-41" value="&lt;br style=&quot;border-color: var(--border-color); font-size: 13px;&quot;&gt;Rd 3 bits inst[24:22] for WB" style="text;html=1;align=center;verticalAlign=middle;resizable=0;points=[];autosize=1;strokeColor=none;fillColor=none;" parent="1" vertex="1">
          <mxGeometry x="-510" y="1240" width="170" height="40" as="geometry" />
        </mxCell>
        <mxCell id="FRVEOWgXkrjnCXTNfwsk-42" value="&lt;br style=&quot;border-color: var(--border-color); font-size: 13px;&quot;&gt;Offset / Imm inst[15:0]" style="text;html=1;align=center;verticalAlign=middle;resizable=0;points=[];autosize=1;strokeColor=none;fillColor=none;fontSize=13;" parent="1" vertex="1">
          <mxGeometry x="-500" y="1330" width="150" height="40" as="geometry" />
        </mxCell>
        <mxCell id="oJpyM_X3onIZimsuUFzw-44" value="Addition Value" style="edgeStyle=orthogonalEdgeStyle;rounded=1;orthogonalLoop=1;jettySize=auto;html=1;entryX=0.5;entryY=1;entryDx=0;entryDy=0;entryPerimeter=0;strokeWidth=2;fillColor=#e51400;strokeColor=#B20000;fontSize=14;" parent="1" source="oJpyM_X3onIZimsuUFzw-1" target="C16ASnKl_FtYkdsgSsSQ-8" edge="1">
          <mxGeometry x="0.2749" relative="1" as="geometry">
            <Array as="points">
              <mxPoint x="-1090" y="920" />
              <mxPoint x="-1090" y="836" />
              <mxPoint x="-1220" y="836" />
            </Array>
            <mxPoint as="offset" />
          </mxGeometry>
        </mxCell>
        <mxCell id="oJpyM_X3onIZimsuUFzw-1" style="html=1;overflow=block;blockSpacing=1;whiteSpace=wrap;shape=trapezoid;perimeter=trapezoidPerimeter;anchorPointDirection=0;flipV=1;fontSize=16.7;fontColor=#3a414a;spacing=3.8;strokeColor=#3a414a;strokeOpacity=100;rounded=1;absoluteArcSize=1;arcSize=9;rotation=-90;strokeWidth=1.5;lucidId=-flLs.cZDFG2;" parent="1" vertex="1">
          <mxGeometry x="-1215" y="885.5" width="100" height="69" as="geometry" />
        </mxCell>
        <mxCell id="oJpyM_X3onIZimsuUFzw-2" value="MUX" style="html=1;overflow=block;blockSpacing=1;whiteSpace=wrap;shape=trapezoid;perimeter=trapezoidPerimeter;anchorPointDirection=0;flipV=1;fontSize=16.7;fontColor=#3a414a;spacing=3.8;strokeOpacity=100;rounded=1;absoluteArcSize=1;arcSize=9;strokeWidth=1.5;lucidId=-flLs.cZDFG2;fillColor=none;strokeColor=none;rotation=-360;" parent="oJpyM_X3onIZimsuUFzw-1" vertex="1">
          <mxGeometry x="0.125" y="-0.16666666666666666" width="90" height="120" relative="1" as="geometry" />
        </mxCell>
        <mxCell id="oJpyM_X3onIZimsuUFzw-5" value="1" style="text;html=1;align=center;verticalAlign=middle;resizable=0;points=[];autosize=1;strokeColor=none;fillColor=none;strokeWidth=2;" parent="1" vertex="1">
          <mxGeometry x="-1285" y="885.5" width="30" height="30" as="geometry" />
        </mxCell>
        <mxCell id="oJpyM_X3onIZimsuUFzw-8" value="2" style="text;html=1;align=center;verticalAlign=middle;resizable=0;points=[];autosize=1;strokeColor=none;fillColor=none;strokeWidth=2;" parent="1" vertex="1">
          <mxGeometry x="-1285" y="924.5" width="30" height="30" as="geometry" />
        </mxCell>
        <mxCell id="oJpyM_X3onIZimsuUFzw-13" value="" style="endArrow=classic;html=1;rounded=0;" parent="1" edge="1">
          <mxGeometry width="50" height="50" relative="1" as="geometry">
            <mxPoint x="-1255" y="899.5" as="sourcePoint" />
            <mxPoint x="-1200" y="900" as="targetPoint" />
            <Array as="points">
              <mxPoint x="-1245" y="899.5" />
            </Array>
          </mxGeometry>
        </mxCell>
        <mxCell id="oJpyM_X3onIZimsuUFzw-14" value="" style="endArrow=classic;html=1;rounded=0;exitX=0.979;exitY=0.47;exitDx=0;exitDy=0;exitPerimeter=0;" parent="1" source="oJpyM_X3onIZimsuUFzw-8" edge="1">
          <mxGeometry width="50" height="50" relative="1" as="geometry">
            <mxPoint x="-1255" y="939.5" as="sourcePoint" />
            <mxPoint x="-1200" y="939" as="targetPoint" />
            <Array as="points">
              <mxPoint x="-1248" y="938.5" />
            </Array>
          </mxGeometry>
        </mxCell>
        <mxCell id="oJpyM_X3onIZimsuUFzw-22" value="FLAGS" style="shape=cylinder3;whiteSpace=wrap;html=1;boundedLbl=1;backgroundOutline=1;size=15;strokeWidth=2;" parent="1" vertex="1">
          <mxGeometry x="-558.07" y="1130" width="60" height="80" as="geometry" />
        </mxCell>
        <mxCell id="oJpyM_X3onIZimsuUFzw-30" value="" style="endArrow=classic;html=1;entryX=0.25;entryY=1;entryDx=0;entryDy=0;exitX=1.043;exitY=0.762;exitDx=0;exitDy=0;exitPerimeter=0;edgeStyle=orthogonalEdgeStyle;strokeWidth=2;" parent="1" source="FRVEOWgXkrjnCXTNfwsk-19" target="C16ASnKl_FtYkdsgSsSQ-56" edge="1">
          <mxGeometry relative="1" as="geometry">
            <mxPoint x="-80" y="1110" as="sourcePoint" />
            <mxPoint x="20" y="1110" as="targetPoint" />
          </mxGeometry>
        </mxCell>
        <mxCell id="oJpyM_X3onIZimsuUFzw-31" value="FLAGS" style="edgeLabel;resizable=0;html=1;align=center;verticalAlign=middle;fontSize=13;" parent="oJpyM_X3onIZimsuUFzw-30" connectable="0" vertex="1">
          <mxGeometry relative="1" as="geometry" />
        </mxCell>
        <mxCell id="oJpyM_X3onIZimsuUFzw-37" value="Branching Result Control Signal" style="edgeStyle=orthogonalEdgeStyle;rounded=1;orthogonalLoop=1;jettySize=auto;html=1;exitX=1;exitY=0.5;exitDx=0;exitDy=0;exitPerimeter=0;fillColor=#e51400;strokeColor=#B20000;strokeWidth=2;fontSize=17;entryX=0.175;entryY=0.75;entryDx=0;entryDy=0;entryPerimeter=0;" parent="1" source="oJpyM_X3onIZimsuUFzw-32" target="te43sHLQZ3bOe-cXKWkI-3" edge="1">
          <mxGeometry x="-0.0906" relative="1" as="geometry">
            <Array as="points">
              <mxPoint x="657" y="1380" />
              <mxPoint x="657" y="1470" />
              <mxPoint x="-1360" y="1470" />
            </Array>
            <mxPoint x="-1360" y="1340" as="targetPoint" />
            <mxPoint as="offset" />
            <mxPoint x="620" y="1380" as="sourcePoint" />
          </mxGeometry>
        </mxCell>
        <mxCell id="_SDMGPXZtipDCqufldMR-21" value="Branching" style="edgeLabel;html=1;align=center;verticalAlign=middle;resizable=0;points=[];fontSize=13;" parent="oJpyM_X3onIZimsuUFzw-37" vertex="1" connectable="0">
          <mxGeometry x="0.9467" y="-2" relative="1" as="geometry">
            <mxPoint as="offset" />
          </mxGeometry>
        </mxCell>
        <mxCell id="oJpyM_X3onIZimsuUFzw-32" value="" style="shape=or;whiteSpace=wrap;html=1;strokeWidth=2;" parent="1" vertex="1">
          <mxGeometry x="530" y="1340" width="60" height="80" as="geometry" />
        </mxCell>
        <mxCell id="oJpyM_X3onIZimsuUFzw-46" value="" style="swimlane;fontStyle=0;childLayout=stackLayout;horizontal=1;startSize=25;horizontalStack=0;resizeParent=1;resizeParentMax=0;resizeLast=0;collapsible=1;marginBottom=0;whiteSpace=wrap;html=1;strokeWidth=2;" parent="1" vertex="1">
          <mxGeometry x="730" y="530" width="70" height="815" as="geometry">
            <mxRectangle x="1140" y="975" width="50" height="40" as="alternateBounds" />
          </mxGeometry>
        </mxCell>
        <mxCell id="oJpyM_X3onIZimsuUFzw-47" value="WB" style="text;strokeColor=#000000;fillColor=none;align=left;verticalAlign=middle;spacingLeft=4;spacingRight=4;overflow=hidden;points=[[0,0.5],[1,0.5]];portConstraint=eastwest;rotatable=0;whiteSpace=wrap;html=1;" parent="oJpyM_X3onIZimsuUFzw-46" vertex="1">
          <mxGeometry y="25" width="70" height="45" as="geometry" />
        </mxCell>
        <mxCell id="oJpyM_X3onIZimsuUFzw-48" value="ME" style="text;strokeColor=#000000;fillColor=none;align=left;verticalAlign=middle;spacingLeft=4;spacingRight=4;overflow=hidden;points=[[0,0.5],[1,0.5]];portConstraint=eastwest;rotatable=0;whiteSpace=wrap;html=1;" parent="oJpyM_X3onIZimsuUFzw-46" vertex="1">
          <mxGeometry y="70" width="70" height="45" as="geometry" />
        </mxCell>
        <mxCell id="oJpyM_X3onIZimsuUFzw-51" value="EX/MEM1" style="text;strokeColor=#000000;fillColor=none;align=center;verticalAlign=middle;spacingLeft=4;spacingRight=4;overflow=hidden;points=[[0,0.5],[1,0.5]];portConstraint=eastwest;rotatable=0;whiteSpace=wrap;html=1;" parent="oJpyM_X3onIZimsuUFzw-46" vertex="1">
          <mxGeometry y="115" width="70" height="700" as="geometry" />
        </mxCell>
        <mxCell id="oJpyM_X3onIZimsuUFzw-52" style="edgeStyle=orthogonalEdgeStyle;rounded=0;orthogonalLoop=1;jettySize=auto;html=1;entryX=0;entryY=0.5;entryDx=0;entryDy=0;fillColor=#e51400;strokeColor=#B20000;strokeWidth=3;" parent="1" source="FRVEOWgXkrjnCXTNfwsk-12" target="oJpyM_X3onIZimsuUFzw-47" edge="1">
          <mxGeometry relative="1" as="geometry" />
        </mxCell>
        <mxCell id="oJpyM_X3onIZimsuUFzw-53" style="edgeStyle=orthogonalEdgeStyle;rounded=0;orthogonalLoop=1;jettySize=auto;html=1;exitX=1;exitY=0.5;exitDx=0;exitDy=0;entryX=0;entryY=0.5;entryDx=0;entryDy=0;strokeWidth=3;fillColor=#e51400;strokeColor=#B20000;" parent="1" source="FRVEOWgXkrjnCXTNfwsk-13" target="oJpyM_X3onIZimsuUFzw-48" edge="1">
          <mxGeometry relative="1" as="geometry" />
        </mxCell>
        <mxCell id="oJpyM_X3onIZimsuUFzw-54" value="New PC Address" style="endArrow=classic;html=1;rounded=1;strokeColor=#009900;strokeWidth=2;fontSize=13;edgeStyle=orthogonalEdgeStyle;entryX=-0.022;entryY=0.093;entryDx=0;entryDy=0;entryPerimeter=0;startArrow=none;startFill=0;exitX=1.04;exitY=0.068;exitDx=0;exitDy=0;exitPerimeter=0;" parent="1" source="FRVEOWgXkrjnCXTNfwsk-19" target="oJpyM_X3onIZimsuUFzw-51" edge="1">
          <mxGeometry x="0.3522" relative="1" as="geometry">
            <mxPoint x="-240" y="770" as="sourcePoint" />
            <mxPoint x="680" y="720" as="targetPoint" />
            <Array as="points">
              <mxPoint x="-190" y="748" />
              <mxPoint x="-190" y="710" />
            </Array>
            <mxPoint as="offset" />
          </mxGeometry>
        </mxCell>
        <mxCell id="oJpyM_X3onIZimsuUFzw-56" value="Memory" style="html=1;overflow=block;blockSpacing=1;whiteSpace=wrap;shape=cylinder3;size=4;anchorPointDirection=0;boundedLbl=1;fontSize=16.7;fontColor=#3a414a;spacing=3.8;strokeColor=#3a414a;strokeOpacity=100;rounded=1;absoluteArcSize=1;arcSize=9;strokeWidth=2;lucidId=~nlLTZhfvCgq;verticalAlign=middle;" parent="1" vertex="1">
          <mxGeometry x="1900" y="762" width="285" height="308" as="geometry" />
        </mxCell>
        <mxCell id="oJpyM_X3onIZimsuUFzw-57" value="" style="swimlane;fontStyle=0;childLayout=stackLayout;horizontal=1;startSize=25;horizontalStack=0;resizeParent=1;resizeParentMax=0;resizeLast=0;collapsible=1;marginBottom=0;whiteSpace=wrap;html=1;" parent="1" vertex="1">
          <mxGeometry x="2350" y="495" width="70" height="930" as="geometry">
            <mxRectangle x="1140" y="975" width="50" height="40" as="alternateBounds" />
          </mxGeometry>
        </mxCell>
        <mxCell id="oJpyM_X3onIZimsuUFzw-58" value="WB" style="text;strokeColor=#000000;fillColor=none;align=left;verticalAlign=middle;spacingLeft=4;spacingRight=4;overflow=hidden;points=[[0,0.5],[1,0.5]];portConstraint=eastwest;rotatable=0;whiteSpace=wrap;html=1;" parent="oJpyM_X3onIZimsuUFzw-57" vertex="1">
          <mxGeometry y="25" width="70" height="45" as="geometry" />
        </mxCell>
        <mxCell id="oJpyM_X3onIZimsuUFzw-60" value="MEM2/WB" style="text;strokeColor=#000000;fillColor=none;align=center;verticalAlign=middle;spacingLeft=4;spacingRight=4;overflow=hidden;points=[[0,0.5],[1,0.5]];portConstraint=eastwest;rotatable=0;whiteSpace=wrap;html=1;" parent="oJpyM_X3onIZimsuUFzw-57" vertex="1">
          <mxGeometry y="70" width="70" height="860" as="geometry" />
        </mxCell>
        <mxCell id="oJpyM_X3onIZimsuUFzw-65" value="" style="swimlane;fontStyle=0;childLayout=stackLayout;horizontal=1;startSize=25;horizontalStack=0;resizeParent=1;resizeParentMax=0;resizeLast=0;collapsible=1;marginBottom=0;whiteSpace=wrap;html=1;strokeWidth=2;" parent="1" vertex="1">
          <mxGeometry x="1590" y="530" width="70" height="815" as="geometry">
            <mxRectangle x="1140" y="975" width="50" height="40" as="alternateBounds" />
          </mxGeometry>
        </mxCell>
        <mxCell id="oJpyM_X3onIZimsuUFzw-66" value="WB" style="text;strokeColor=#000000;fillColor=none;align=left;verticalAlign=middle;spacingLeft=4;spacingRight=4;overflow=hidden;points=[[0,0.5],[1,0.5]];portConstraint=eastwest;rotatable=0;whiteSpace=wrap;html=1;" parent="oJpyM_X3onIZimsuUFzw-65" vertex="1">
          <mxGeometry y="25" width="70" height="45" as="geometry" />
        </mxCell>
        <mxCell id="oJpyM_X3onIZimsuUFzw-67" value="ME" style="text;strokeColor=#000000;fillColor=none;align=left;verticalAlign=middle;spacingLeft=4;spacingRight=4;overflow=hidden;points=[[0,0.5],[1,0.5]];portConstraint=eastwest;rotatable=0;whiteSpace=wrap;html=1;" parent="oJpyM_X3onIZimsuUFzw-65" vertex="1">
          <mxGeometry y="70" width="70" height="45" as="geometry" />
        </mxCell>
        <mxCell id="oJpyM_X3onIZimsuUFzw-68" value="MEM1&lt;br&gt;MEM2" style="text;strokeColor=#000000;fillColor=none;align=center;verticalAlign=middle;spacingLeft=4;spacingRight=4;overflow=hidden;points=[[0,0.5],[1,0.5]];portConstraint=eastwest;rotatable=0;whiteSpace=wrap;html=1;strokeWidth=1;" parent="oJpyM_X3onIZimsuUFzw-65" vertex="1">
          <mxGeometry y="115" width="70" height="700" as="geometry" />
        </mxCell>
        <mxCell id="oJpyM_X3onIZimsuUFzw-79" style="edgeStyle=orthogonalEdgeStyle;rounded=1;orthogonalLoop=1;jettySize=auto;html=1;exitX=1;exitY=0.5;exitDx=0;exitDy=0;exitPerimeter=0;strokeWidth=2;strokeColor=#009900;" parent="1" source="oJpyM_X3onIZimsuUFzw-70" edge="1">
          <mxGeometry relative="1" as="geometry">
            <mxPoint x="1310" y="1020" as="targetPoint" />
          </mxGeometry>
        </mxCell>
        <mxCell id="oJpyM_X3onIZimsuUFzw-82" value="SP" style="edgeLabel;html=1;align=center;verticalAlign=middle;resizable=0;points=[];fontSize=14;" parent="oJpyM_X3onIZimsuUFzw-79" vertex="1" connectable="0">
          <mxGeometry x="-0.3204" y="4" relative="1" as="geometry">
            <mxPoint x="-17" y="4" as="offset" />
          </mxGeometry>
        </mxCell>
        <mxCell id="oJpyM_X3onIZimsuUFzw-70" value="SP" style="shape=cylinder3;whiteSpace=wrap;html=1;boundedLbl=1;backgroundOutline=1;size=15;" parent="1" vertex="1">
          <mxGeometry x="821" y="980" width="60" height="80" as="geometry" />
        </mxCell>
        <mxCell id="oJpyM_X3onIZimsuUFzw-75" style="html=1;overflow=block;blockSpacing=1;whiteSpace=wrap;shape=trapezoid;perimeter=trapezoidPerimeter;anchorPointDirection=0;flipV=1;fontSize=16.7;fontColor=#3a414a;spacing=3.8;strokeColor=#3a414a;strokeOpacity=100;rounded=1;absoluteArcSize=1;arcSize=9;rotation=-90;strokeWidth=2;lucidId=eCmLYlLbR1Ar;" parent="1" vertex="1">
          <mxGeometry x="1020" y="1075" width="120" height="90" as="geometry" />
        </mxCell>
        <mxCell id="oJpyM_X3onIZimsuUFzw-76" value="MUX" style="html=1;overflow=block;blockSpacing=1;whiteSpace=wrap;shape=trapezoid;perimeter=trapezoidPerimeter;anchorPointDirection=0;flipV=1;fontSize=16.7;fontColor=#3a414a;spacing=3.8;strokeOpacity=100;rounded=1;absoluteArcSize=1;arcSize=9;strokeWidth=1.5;lucidId=eCmLYlLbR1Ar;fillColor=none;strokeColor=none;rotation=-360;size=0;" parent="oJpyM_X3onIZimsuUFzw-75" vertex="1">
          <mxGeometry x="0.125" y="-0.16666666666666666" width="90" height="120" relative="1" as="geometry" />
        </mxCell>
        <mxCell id="oJpyM_X3onIZimsuUFzw-77" value="0" style="html=1;overflow=block;blockSpacing=1;whiteSpace=wrap;fontSize=16.7;fontColor=#3a414a;spacing=3.8;strokeOpacity=0;fillOpacity=0;rounded=1;absoluteArcSize=1;arcSize=9;fillColor=#ffffff;strokeWidth=0.8;lucidId=WRmLaLrrVqPS;" parent="oJpyM_X3onIZimsuUFzw-75" vertex="1">
          <mxGeometry x="20" y="7" width="30" height="30" as="geometry" />
        </mxCell>
        <mxCell id="oJpyM_X3onIZimsuUFzw-78" value="1" style="html=1;overflow=block;blockSpacing=1;whiteSpace=wrap;fontSize=16.7;fontColor=#3a414a;spacing=3.8;strokeOpacity=0;fillOpacity=0;rounded=1;absoluteArcSize=1;arcSize=9;fillColor=#ffffff;strokeWidth=0.8;lucidId=9RmLGIltzn3M;" parent="oJpyM_X3onIZimsuUFzw-75" vertex="1">
          <mxGeometry x="20" y="60" width="30" height="30" as="geometry" />
        </mxCell>
        <mxCell id="oJpyM_X3onIZimsuUFzw-86" value="Rs1 &amp;amp; Rs2 Data" style="html=1;jettySize=18;whiteSpace=wrap;fontSize=14;strokeColor=#3a414a;strokeOpacity=100;strokeWidth=3;rounded=1;arcSize=12;edgeStyle=orthogonalEdgeStyle;startArrow=none;endArrow=block;endFill=1;lucidId=cJmLwLXzHCif;" parent="1" target="oJpyM_X3onIZimsuUFzw-51" edge="1">
          <mxGeometry x="0.3491" width="100" height="100" relative="1" as="geometry">
            <Array as="points">
              <mxPoint x="70" y="890" />
              <mxPoint x="70" y="800" />
            </Array>
            <mxPoint x="-260" y="890" as="sourcePoint" />
            <mxPoint x="-1" as="offset" />
            <mxPoint x="109" y="930" as="targetPoint" />
          </mxGeometry>
        </mxCell>
        <mxCell id="oJpyM_X3onIZimsuUFzw-91" style="html=1;overflow=block;blockSpacing=1;whiteSpace=wrap;shape=trapezoid;perimeter=trapezoidPerimeter;anchorPointDirection=0;flipV=1;fontSize=16.7;fontColor=#3a414a;spacing=3.8;strokeColor=#3a414a;strokeOpacity=100;rounded=1;absoluteArcSize=1;arcSize=9;rotation=-90;strokeWidth=2;lucidId=eCmLYlLbR1Ar;" parent="1" vertex="1">
          <mxGeometry x="1300" y="950" width="120" height="90" as="geometry" />
        </mxCell>
        <mxCell id="oJpyM_X3onIZimsuUFzw-92" value="MUX" style="html=1;overflow=block;blockSpacing=1;whiteSpace=wrap;shape=trapezoid;perimeter=trapezoidPerimeter;anchorPointDirection=0;flipV=1;fontSize=16.7;fontColor=#3a414a;spacing=3.8;strokeOpacity=100;rounded=1;absoluteArcSize=1;arcSize=9;strokeWidth=1.5;lucidId=eCmLYlLbR1Ar;fillColor=none;strokeColor=none;rotation=-360;" parent="oJpyM_X3onIZimsuUFzw-91" vertex="1">
          <mxGeometry x="0.125" y="-0.16666666666666666" width="90" height="120" relative="1" as="geometry" />
        </mxCell>
        <mxCell id="oJpyM_X3onIZimsuUFzw-93" value="0" style="html=1;overflow=block;blockSpacing=1;whiteSpace=wrap;fontSize=16.7;fontColor=#3a414a;spacing=3.8;strokeOpacity=0;fillOpacity=0;rounded=1;absoluteArcSize=1;arcSize=9;fillColor=#ffffff;strokeWidth=0.8;lucidId=WRmLaLrrVqPS;" parent="oJpyM_X3onIZimsuUFzw-91" vertex="1">
          <mxGeometry x="20" y="7" width="30" height="30" as="geometry" />
        </mxCell>
        <mxCell id="oJpyM_X3onIZimsuUFzw-94" value="1" style="html=1;overflow=block;blockSpacing=1;whiteSpace=wrap;fontSize=16.7;fontColor=#3a414a;spacing=3.8;strokeOpacity=0;fillOpacity=0;rounded=1;absoluteArcSize=1;arcSize=9;fillColor=#ffffff;strokeWidth=0.8;lucidId=9RmLGIltzn3M;" parent="oJpyM_X3onIZimsuUFzw-91" vertex="1">
          <mxGeometry x="20" y="60" width="30" height="30" as="geometry" />
        </mxCell>
        <mxCell id="oJpyM_X3onIZimsuUFzw-103" style="edgeStyle=orthogonalEdgeStyle;rounded=0;orthogonalLoop=1;jettySize=auto;html=1;exitX=1;exitY=0.5;exitDx=0;exitDy=0;entryX=0;entryY=0.5;entryDx=0;entryDy=0;fillColor=#e51400;strokeColor=#B20000;strokeWidth=3;" parent="1" source="oJpyM_X3onIZimsuUFzw-47" target="oJpyM_X3onIZimsuUFzw-66" edge="1">
          <mxGeometry relative="1" as="geometry" />
        </mxCell>
        <mxCell id="oJpyM_X3onIZimsuUFzw-104" style="edgeStyle=orthogonalEdgeStyle;rounded=1;orthogonalLoop=1;jettySize=auto;html=1;exitX=1;exitY=0.5;exitDx=0;exitDy=0;entryX=0;entryY=0.5;entryDx=0;entryDy=0;strokeWidth=3;fillColor=#e51400;strokeColor=#B20000;" parent="1" source="oJpyM_X3onIZimsuUFzw-66" target="oJpyM_X3onIZimsuUFzw-58" edge="1">
          <mxGeometry relative="1" as="geometry" />
        </mxCell>
        <mxCell id="oJpyM_X3onIZimsuUFzw-111" value="ALU RESULT/ Immediate Value" style="edgeStyle=orthogonalEdgeStyle;rounded=1;orthogonalLoop=1;jettySize=auto;html=1;strokeWidth=2;exitX=1.02;exitY=0.451;exitDx=0;exitDy=0;exitPerimeter=0;" parent="1" source="oJpyM_X3onIZimsuUFzw-51" edge="1">
          <mxGeometry x="0.0237" relative="1" as="geometry">
            <Array as="points">
              <mxPoint x="850" y="961" />
              <mxPoint x="850" y="890" />
              <mxPoint x="1588" y="890" />
            </Array>
            <mxPoint x="1" as="offset" />
            <mxPoint x="880" y="950" as="sourcePoint" />
            <mxPoint x="1589" y="890" as="targetPoint" />
          </mxGeometry>
        </mxCell>
        <mxCell id="_SDMGPXZtipDCqufldMR-4" value="" style="endArrow=none;html=1;rounded=1;exitX=1;exitY=0.5;exitDx=0;exitDy=0;fillColor=#fa6800;strokeColor=#C73500;strokeWidth=4;entryX=-0.071;entryY=0.036;entryDx=0;entryDy=0;entryPerimeter=0;" parent="1" source="FRVEOWgXkrjnCXTNfwsk-14" target="oJpyM_X3onIZimsuUFzw-51" edge="1">
          <mxGeometry width="50" height="50" relative="1" as="geometry">
            <mxPoint x="110" y="790" as="sourcePoint" />
            <mxPoint x="710" y="670" as="targetPoint" />
          </mxGeometry>
        </mxCell>
        <mxCell id="_SDMGPXZtipDCqufldMR-7" value="" style="endArrow=classic;html=1;rounded=0;fillColor=#e51400;strokeColor=#B20000;strokeWidth=2;startArrow=oval;startFill=1;" parent="1" edge="1">
          <mxGeometry relative="1" as="geometry">
            <mxPoint x="190" y="672.5" as="sourcePoint" />
            <mxPoint x="190" y="882.5" as="targetPoint" />
          </mxGeometry>
        </mxCell>
        <mxCell id="_SDMGPXZtipDCqufldMR-8" value="Alu Enable" style="edgeLabel;resizable=0;html=1;align=center;verticalAlign=middle;" parent="_SDMGPXZtipDCqufldMR-7" connectable="0" vertex="1">
          <mxGeometry relative="1" as="geometry">
            <mxPoint y="-6" as="offset" />
          </mxGeometry>
        </mxCell>
        <mxCell id="_SDMGPXZtipDCqufldMR-9" value="" style="endArrow=classic;html=1;rounded=0;fillColor=#e51400;strokeColor=#B20000;strokeWidth=2;startArrow=oval;startFill=1;" parent="1" edge="1">
          <mxGeometry relative="1" as="geometry">
            <mxPoint x="240" y="672.5" as="sourcePoint" />
            <mxPoint x="240" y="882.5" as="targetPoint" />
          </mxGeometry>
        </mxCell>
        <mxCell id="_SDMGPXZtipDCqufldMR-10" value="Part Selector" style="edgeLabel;resizable=0;html=1;align=center;verticalAlign=middle;" parent="_SDMGPXZtipDCqufldMR-9" connectable="0" vertex="1">
          <mxGeometry relative="1" as="geometry">
            <mxPoint y="-37" as="offset" />
          </mxGeometry>
        </mxCell>
        <mxCell id="_SDMGPXZtipDCqufldMR-11" value="" style="endArrow=classic;html=1;rounded=0;fillColor=#e51400;strokeColor=#B20000;strokeWidth=2;startArrow=oval;startFill=1;" parent="1" edge="1">
          <mxGeometry relative="1" as="geometry">
            <mxPoint x="290" y="672.5" as="sourcePoint" />
            <mxPoint x="290" y="882.5" as="targetPoint" />
          </mxGeometry>
        </mxCell>
        <mxCell id="_SDMGPXZtipDCqufldMR-12" value="Op Selector" style="edgeLabel;resizable=0;html=1;align=center;verticalAlign=middle;" parent="_SDMGPXZtipDCqufldMR-11" connectable="0" vertex="1">
          <mxGeometry relative="1" as="geometry">
            <mxPoint y="-7" as="offset" />
          </mxGeometry>
        </mxCell>
        <mxCell id="_SDMGPXZtipDCqufldMR-13" value="" style="endArrow=classic;html=1;rounded=1;fillColor=#e51400;strokeColor=#B20000;strokeWidth=2;entryX=0;entryY=0.25;entryDx=0;entryDy=0;entryPerimeter=0;edgeStyle=orthogonalEdgeStyle;startArrow=oval;startFill=1;" parent="1" target="oJpyM_X3onIZimsuUFzw-32" edge="1">
          <mxGeometry relative="1" as="geometry">
            <mxPoint x="490" y="670" as="sourcePoint" />
            <mxPoint x="450" y="882.5" as="targetPoint" />
            <Array as="points">
              <mxPoint x="490" y="1360" />
            </Array>
          </mxGeometry>
        </mxCell>
        <mxCell id="_SDMGPXZtipDCqufldMR-14" value="Branching Operation" style="edgeLabel;resizable=0;html=1;align=center;verticalAlign=middle;fontSize=12;" parent="_SDMGPXZtipDCqufldMR-13" connectable="0" vertex="1">
          <mxGeometry relative="1" as="geometry">
            <mxPoint y="202" as="offset" />
          </mxGeometry>
        </mxCell>
        <mxCell id="_SDMGPXZtipDCqufldMR-19" value="" style="endArrow=classic;html=1;rounded=1;edgeStyle=orthogonalEdgeStyle;strokeWidth=3;strokeColor=#009900;startArrow=none;startFill=0;exitX=1.103;exitY=0.19;exitDx=0;exitDy=0;exitPerimeter=0;entryX=0;entryY=0.5;entryDx=0;entryDy=0;" parent="1" target="C16ASnKl_FtYkdsgSsSQ-17" edge="1">
          <mxGeometry relative="1" as="geometry">
            <mxPoint x="-257.84999999999945" y="833.0000000000002" as="sourcePoint" />
            <mxPoint x="-1530" y="1070" as="targetPoint" />
            <Array as="points">
              <mxPoint x="47" y="833" />
              <mxPoint x="47" y="370" />
              <mxPoint x="-1673" y="370" />
              <mxPoint x="-1673" y="1070" />
            </Array>
          </mxGeometry>
        </mxCell>
        <mxCell id="_SDMGPXZtipDCqufldMR-20" value="Jumped/Call Address" style="edgeLabel;resizable=0;html=1;align=center;verticalAlign=middle;fontSize=16;" parent="_SDMGPXZtipDCqufldMR-19" connectable="0" vertex="1">
          <mxGeometry relative="1" as="geometry">
            <mxPoint x="-14" as="offset" />
          </mxGeometry>
        </mxCell>
        <mxCell id="te43sHLQZ3bOe-cXKWkI-1" value="Jumped/called Address" style="edgeLabel;html=1;align=center;verticalAlign=middle;resizable=0;points=[];fontSize=14;" parent="_SDMGPXZtipDCqufldMR-19" vertex="1" connectable="0">
          <mxGeometry x="-0.9324" relative="1" as="geometry">
            <mxPoint as="offset" />
          </mxGeometry>
        </mxCell>
        <mxCell id="te43sHLQZ3bOe-cXKWkI-2" value="Jumped/Call Address" style="edgeLabel;html=1;align=center;verticalAlign=middle;resizable=0;points=[];fontSize=13;" parent="_SDMGPXZtipDCqufldMR-19" vertex="1" connectable="0">
          <mxGeometry x="0.8169" y="-8" relative="1" as="geometry">
            <mxPoint y="1" as="offset" />
          </mxGeometry>
        </mxCell>
        <mxCell id="_SDMGPXZtipDCqufldMR-24" value="" style="endArrow=classic;html=1;rounded=1;fillColor=#e51400;strokeColor=#B20000;strokeWidth=2;startArrow=oval;startFill=1;edgeStyle=orthogonalEdgeStyle;fontSize=14;entryX=0.175;entryY=0.25;entryDx=0;entryDy=0;entryPerimeter=0;" parent="1" target="te43sHLQZ3bOe-cXKWkI-3" edge="1">
          <mxGeometry relative="1" as="geometry">
            <mxPoint x="700" y="670.5" as="sourcePoint" />
            <mxPoint x="-1400" y="1310" as="targetPoint" />
            <Array as="points">
              <mxPoint x="700" y="1578" />
              <mxPoint x="-1400" y="1578" />
            </Array>
          </mxGeometry>
        </mxCell>
        <mxCell id="_SDMGPXZtipDCqufldMR-25" value="Call Control Signal" style="edgeLabel;resizable=0;html=1;align=center;verticalAlign=middle;fontSize=15;" parent="_SDMGPXZtipDCqufldMR-24" connectable="0" vertex="1">
          <mxGeometry relative="1" as="geometry">
            <mxPoint y="-7" as="offset" />
          </mxGeometry>
        </mxCell>
        <mxCell id="_SDMGPXZtipDCqufldMR-26" value="Call" style="edgeLabel;html=1;align=center;verticalAlign=middle;resizable=0;points=[];fontSize=14;" parent="_SDMGPXZtipDCqufldMR-24" vertex="1" connectable="0">
          <mxGeometry x="0.9252" y="2" relative="1" as="geometry">
            <mxPoint x="1" y="-13" as="offset" />
          </mxGeometry>
        </mxCell>
        <mxCell id="_SDMGPXZtipDCqufldMR-27" value="" style="html=1;jettySize=18;whiteSpace=wrap;fontSize=13;strokeColor=#008a0e;strokeOpacity=100;strokeWidth=2.3;rounded=1;arcSize=12;edgeStyle=orthogonalEdgeStyle;startArrow=none;endArrow=block;endFill=1;lucidId=_hmLU3yBh-IQ;startFill=0;" parent="1" target="oJpyM_X3onIZimsuUFzw-51" edge="1">
          <mxGeometry x="0.4091" y="-2" width="100" height="100" relative="1" as="geometry">
            <Array as="points">
              <mxPoint x="-260" y="1281" />
              <mxPoint x="700" y="1281" />
              <mxPoint x="700" y="1280" />
            </Array>
            <mxPoint x="-260" y="1280" as="sourcePoint" />
            <mxPoint x="710" y="1280" as="targetPoint" />
            <mxPoint as="offset" />
          </mxGeometry>
        </mxCell>
        <mxCell id="_SDMGPXZtipDCqufldMR-28" value="Rd Address" style="edgeLabel;html=1;align=center;verticalAlign=middle;resizable=0;points=[];fontSize=13;" parent="_SDMGPXZtipDCqufldMR-27" vertex="1" connectable="0">
          <mxGeometry x="0.0847" y="-2" relative="1" as="geometry">
            <mxPoint x="63" y="-1" as="offset" />
          </mxGeometry>
        </mxCell>
        <mxCell id="_SDMGPXZtipDCqufldMR-29" value="" style="endArrow=classic;html=1;rounded=1;exitX=1;exitY=0.5;exitDx=0;exitDy=0;fillColor=#fa6800;strokeColor=#C73500;strokeWidth=4;entryX=0;entryY=0.5;entryDx=0;entryDy=0;edgeStyle=orthogonalEdgeStyle;endFill=1;" parent="1" target="oJpyM_X3onIZimsuUFzw-67" edge="1">
          <mxGeometry width="50" height="50" relative="1" as="geometry">
            <mxPoint x="800" y="623" as="sourcePoint" />
            <mxPoint x="1570" y="620" as="targetPoint" />
          </mxGeometry>
        </mxCell>
        <mxCell id="_SDMGPXZtipDCqufldMR-30" value="" style="endArrow=none;html=1;rounded=1;exitX=1;exitY=0.5;exitDx=0;exitDy=0;fillColor=#fa6800;strokeColor=#000000;strokeWidth=2;entryX=0;entryY=0.5;entryDx=0;entryDy=0;edgeStyle=orthogonalEdgeStyle;endFill=0;" parent="1" edge="1">
          <mxGeometry width="50" height="50" relative="1" as="geometry">
            <mxPoint x="800" y="801" as="sourcePoint" />
            <mxPoint x="1590" y="801" as="targetPoint" />
          </mxGeometry>
        </mxCell>
        <mxCell id="_SDMGPXZtipDCqufldMR-31" value="Rs1 &amp;amp; Rs2 Data" style="edgeLabel;html=1;align=center;verticalAlign=middle;resizable=0;points=[];fontSize=13;" parent="_SDMGPXZtipDCqufldMR-30" vertex="1" connectable="0">
          <mxGeometry x="-0.0348" y="1" relative="1" as="geometry">
            <mxPoint as="offset" />
          </mxGeometry>
        </mxCell>
        <mxCell id="_SDMGPXZtipDCqufldMR-36" style="html=1;overflow=block;blockSpacing=1;whiteSpace=wrap;shape=trapezoid;perimeter=trapezoidPerimeter;anchorPointDirection=0;flipV=1;fontSize=16.7;fontColor=#3a414a;spacing=3.8;strokeColor=#3a414a;strokeOpacity=100;rounded=1;absoluteArcSize=1;arcSize=9;rotation=-90;strokeWidth=2;lucidId=eCmLYlLbR1Ar;" parent="1" vertex="1">
          <mxGeometry x="1150" y="660" width="120" height="90" as="geometry" />
        </mxCell>
        <mxCell id="_SDMGPXZtipDCqufldMR-37" value="MUX" style="html=1;overflow=block;blockSpacing=1;whiteSpace=wrap;shape=trapezoid;perimeter=trapezoidPerimeter;anchorPointDirection=0;flipV=1;fontSize=16.7;fontColor=#3a414a;spacing=3.8;strokeOpacity=100;rounded=1;absoluteArcSize=1;arcSize=9;strokeWidth=1.5;lucidId=eCmLYlLbR1Ar;fillColor=none;strokeColor=none;rotation=-360;" parent="_SDMGPXZtipDCqufldMR-36" vertex="1">
          <mxGeometry x="0.125" y="-0.16666666666666666" width="90" height="120" relative="1" as="geometry" />
        </mxCell>
        <mxCell id="_SDMGPXZtipDCqufldMR-38" value="0" style="html=1;overflow=block;blockSpacing=1;whiteSpace=wrap;fontSize=16.7;fontColor=#3a414a;spacing=3.8;strokeOpacity=0;fillOpacity=0;rounded=1;absoluteArcSize=1;arcSize=9;fillColor=#ffffff;strokeWidth=0.8;lucidId=WRmLaLrrVqPS;" parent="_SDMGPXZtipDCqufldMR-36" vertex="1">
          <mxGeometry x="20" y="7" width="30" height="30" as="geometry" />
        </mxCell>
        <mxCell id="_SDMGPXZtipDCqufldMR-39" value="1" style="html=1;overflow=block;blockSpacing=1;whiteSpace=wrap;fontSize=16.7;fontColor=#3a414a;spacing=3.8;strokeOpacity=0;fillOpacity=0;rounded=1;absoluteArcSize=1;arcSize=9;fillColor=#ffffff;strokeWidth=0.8;lucidId=9RmLGIltzn3M;" parent="_SDMGPXZtipDCqufldMR-36" vertex="1">
          <mxGeometry x="20" y="60" width="30" height="30" as="geometry" />
        </mxCell>
        <mxCell id="_SDMGPXZtipDCqufldMR-40" value="" style="endArrow=classic;html=1;rounded=1;exitX=1.091;exitY=0.093;exitDx=0;exitDy=0;exitPerimeter=0;entryX=-0.037;entryY=0.685;entryDx=0;entryDy=0;edgeStyle=orthogonalEdgeStyle;strokeWidth=2;strokeColor=#009900;entryPerimeter=0;" parent="1" source="oJpyM_X3onIZimsuUFzw-51" target="_SDMGPXZtipDCqufldMR-37" edge="1">
          <mxGeometry width="50" height="50" relative="1" as="geometry">
            <mxPoint x="1000" y="860" as="sourcePoint" />
            <mxPoint x="1050" y="810" as="targetPoint" />
            <Array as="points">
              <mxPoint x="880" y="710" />
              <mxPoint x="880" y="683" />
            </Array>
          </mxGeometry>
        </mxCell>
        <mxCell id="_SDMGPXZtipDCqufldMR-43" value="New PC Address" style="edgeLabel;html=1;align=center;verticalAlign=middle;resizable=0;points=[];fontSize=13;" parent="_SDMGPXZtipDCqufldMR-40" vertex="1" connectable="0">
          <mxGeometry x="0.0961" relative="1" as="geometry">
            <mxPoint as="offset" />
          </mxGeometry>
        </mxCell>
        <mxCell id="_SDMGPXZtipDCqufldMR-41" value="" style="endArrow=classic;html=1;rounded=1;entryX=0.25;entryY=0;entryDx=0;entryDy=0;startArrow=oval;startFill=1;edgeStyle=orthogonalEdgeStyle;strokeWidth=2;" parent="1" target="_SDMGPXZtipDCqufldMR-36" edge="1">
          <mxGeometry width="50" height="50" relative="1" as="geometry">
            <mxPoint x="930" y="800" as="sourcePoint" />
            <mxPoint x="960" y="840" as="targetPoint" />
            <Array as="points">
              <mxPoint x="930" y="735" />
            </Array>
          </mxGeometry>
        </mxCell>
        <mxCell id="_SDMGPXZtipDCqufldMR-44" value="Rs1&lt;font style=&quot;font-size: 14px;&quot;&gt;&amp;nbsp;Data&lt;/font&gt;" style="edgeLabel;html=1;align=center;verticalAlign=middle;resizable=0;points=[];fontSize=14;" parent="_SDMGPXZtipDCqufldMR-41" vertex="1" connectable="0">
          <mxGeometry x="-0.0051" y="5" relative="1" as="geometry">
            <mxPoint as="offset" />
          </mxGeometry>
        </mxCell>
        <mxCell id="_SDMGPXZtipDCqufldMR-45" value="" style="endArrow=classic;html=1;rounded=0;entryX=-0.046;entryY=0.087;entryDx=0;entryDy=0;entryPerimeter=0;strokeWidth=2;" parent="1" target="oJpyM_X3onIZimsuUFzw-68" edge="1">
          <mxGeometry relative="1" as="geometry">
            <mxPoint x="1260" y="706" as="sourcePoint" />
            <mxPoint x="1380" y="840" as="targetPoint" />
          </mxGeometry>
        </mxCell>
        <mxCell id="_SDMGPXZtipDCqufldMR-46" value="Data to be Written" style="edgeLabel;resizable=0;html=1;align=center;verticalAlign=middle;fontSize=13;" parent="_SDMGPXZtipDCqufldMR-45" connectable="0" vertex="1">
          <mxGeometry relative="1" as="geometry" />
        </mxCell>
        <mxCell id="_SDMGPXZtipDCqufldMR-47" value="" style="endArrow=classic;html=1;rounded=0;entryX=0.5;entryY=0.875;entryDx=0;entryDy=0;entryPerimeter=0;fillColor=#e51400;strokeColor=#B20000;strokeWidth=2;startArrow=oval;startFill=1;" parent="1" edge="1">
          <mxGeometry width="50" height="50" relative="1" as="geometry">
            <mxPoint x="1210" y="626" as="sourcePoint" />
            <mxPoint x="1210" y="656" as="targetPoint" />
            <Array as="points" />
          </mxGeometry>
        </mxCell>
        <mxCell id="_SDMGPXZtipDCqufldMR-48" value="Data Written Selector" style="text;html=1;align=center;verticalAlign=middle;resizable=0;points=[];autosize=1;strokeColor=none;fillColor=none;" parent="1" vertex="1">
          <mxGeometry x="1213" y="626" width="140" height="30" as="geometry" />
        </mxCell>
        <mxCell id="_SDMGPXZtipDCqufldMR-51" value="" style="endArrow=classic;html=1;rounded=0;entryX=0.5;entryY=0;entryDx=0;entryDy=0;startArrow=oval;startFill=1;fillColor=#e51400;strokeColor=#B20000;strokeWidth=2;" parent="1" edge="1">
          <mxGeometry width="50" height="50" relative="1" as="geometry">
            <mxPoint x="1360" y="625" as="sourcePoint" />
            <mxPoint x="1360" y="940" as="targetPoint" />
            <Array as="points">
              <mxPoint x="1360" y="775" />
            </Array>
          </mxGeometry>
        </mxCell>
        <mxCell id="_SDMGPXZtipDCqufldMR-52" value="Write Address Selector" style="edgeLabel;html=1;align=center;verticalAlign=middle;resizable=0;points=[];fontSize=13;" parent="_SDMGPXZtipDCqufldMR-51" vertex="1" connectable="0">
          <mxGeometry x="-0.1965" y="-1" relative="1" as="geometry">
            <mxPoint x="1" y="-2" as="offset" />
          </mxGeometry>
        </mxCell>
        <mxCell id="_SDMGPXZtipDCqufldMR-53" value="" style="endArrow=classic;html=1;rounded=1;startArrow=oval;startFill=1;edgeStyle=orthogonalEdgeStyle;strokeWidth=2;" parent="1" edge="1">
          <mxGeometry width="50" height="50" relative="1" as="geometry">
            <mxPoint x="983" y="800" as="sourcePoint" />
            <mxPoint x="1313" y="970" as="targetPoint" />
            <Array as="points">
              <mxPoint x="983" y="860" />
              <mxPoint x="983" y="970" />
              <mxPoint x="1307" y="970" />
            </Array>
          </mxGeometry>
        </mxCell>
        <mxCell id="_SDMGPXZtipDCqufldMR-54" value="Rs2 Data" style="edgeLabel;html=1;align=center;verticalAlign=middle;resizable=0;points=[];fontSize=14;" parent="_SDMGPXZtipDCqufldMR-53" vertex="1" connectable="0">
          <mxGeometry x="-0.0051" y="5" relative="1" as="geometry">
            <mxPoint x="68" as="offset" />
          </mxGeometry>
        </mxCell>
        <mxCell id="_SDMGPXZtipDCqufldMR-55" value="" style="endArrow=classic;html=1;rounded=1;edgeStyle=orthogonalEdgeStyle;startArrow=oval;startFill=1;strokeWidth=2;strokeColor=#009900;" parent="1" edge="1">
          <mxGeometry width="50" height="50" relative="1" as="geometry">
            <mxPoint x="908.97" y="1020" as="sourcePoint" />
            <mxPoint x="1030" y="1150" as="targetPoint" />
            <Array as="points">
              <mxPoint x="909" y="1150" />
            </Array>
          </mxGeometry>
        </mxCell>
        <mxCell id="_SDMGPXZtipDCqufldMR-57" value="" style="endArrow=classic;html=1;rounded=1;startArrow=oval;startFill=1;edgeStyle=orthogonalEdgeStyle;strokeWidth=2;entryX=0.708;entryY=1.056;entryDx=0;entryDy=0;entryPerimeter=0;" parent="1" target="oJpyM_X3onIZimsuUFzw-75" edge="1">
          <mxGeometry width="50" height="50" relative="1" as="geometry">
            <mxPoint x="930" y="801" as="sourcePoint" />
            <mxPoint x="1140" y="1090" as="targetPoint" />
            <Array as="points">
              <mxPoint x="930" y="1095" />
            </Array>
          </mxGeometry>
        </mxCell>
        <mxCell id="_SDMGPXZtipDCqufldMR-59" value="Rs1 Data" style="edgeLabel;html=1;align=center;verticalAlign=middle;resizable=0;points=[];fontSize=13;" parent="_SDMGPXZtipDCqufldMR-57" vertex="1" connectable="0">
          <mxGeometry x="0.547" y="-1" relative="1" as="geometry">
            <mxPoint x="29" as="offset" />
          </mxGeometry>
        </mxCell>
        <mxCell id="_SDMGPXZtipDCqufldMR-64" value="" style="endArrow=classic;html=1;rounded=0;exitX=1.143;exitY=0.907;exitDx=0;exitDy=0;exitPerimeter=0;entryX=-0.022;entryY=0.907;entryDx=0;entryDy=0;entryPerimeter=0;strokeColor=#009900;strokeWidth=2;" parent="1" target="oJpyM_X3onIZimsuUFzw-68" edge="1">
          <mxGeometry width="50" height="50" relative="1" as="geometry">
            <mxPoint x="802.0100000000002" y="1279.9" as="sourcePoint" />
            <mxPoint x="1572" y="1280" as="targetPoint" />
          </mxGeometry>
        </mxCell>
        <mxCell id="_SDMGPXZtipDCqufldMR-65" value="Rd Address" style="edgeLabel;html=1;align=center;verticalAlign=middle;resizable=0;points=[];fontSize=13;" parent="_SDMGPXZtipDCqufldMR-64" vertex="1" connectable="0">
          <mxGeometry x="-0.146" y="5" relative="1" as="geometry">
            <mxPoint x="-1" y="2" as="offset" />
          </mxGeometry>
        </mxCell>
        <mxCell id="_SDMGPXZtipDCqufldMR-66" value="New Flags" style="edgeStyle=orthogonalEdgeStyle;rounded=1;orthogonalLoop=1;jettySize=auto;html=1;exitX=1.048;exitY=0.676;exitDx=0;exitDy=0;strokeWidth=2;fontSize=14;exitPerimeter=0;entryX=0;entryY=0.793;entryDx=0;entryDy=0;entryPerimeter=0;" parent="1" edge="1">
          <mxGeometry relative="1" as="geometry">
            <mxPoint x="1589" y="1200.1000000000001" as="targetPoint" />
            <mxPoint x="802.3600000000001" y="1118.2" as="sourcePoint" />
            <Array as="points">
              <mxPoint x="880" y="1118" />
              <mxPoint x="880" y="1200" />
            </Array>
          </mxGeometry>
        </mxCell>
        <mxCell id="_SDMGPXZtipDCqufldMR-56" value="SP" style="edgeLabel;html=1;align=center;verticalAlign=middle;resizable=0;points=[];fontSize=14;" parent="1" vertex="1" connectable="0">
          <mxGeometry x="960" y="1055.0000000000002" as="geometry">
            <mxPoint x="8" y="84" as="offset" />
          </mxGeometry>
        </mxCell>
        <mxCell id="_SDMGPXZtipDCqufldMR-67" value="" style="endArrow=classic;html=1;rounded=0;entryX=0.5;entryY=0;entryDx=0;entryDy=0;startArrow=oval;startFill=1;fillColor=#e51400;strokeColor=#B20000;strokeWidth=2;" parent="1" target="oJpyM_X3onIZimsuUFzw-76" edge="1">
          <mxGeometry width="50" height="50" relative="1" as="geometry">
            <mxPoint x="1079.33" y="623" as="sourcePoint" />
            <mxPoint x="1079.33" y="938" as="targetPoint" />
            <Array as="points">
              <mxPoint x="1079.33" y="773" />
            </Array>
          </mxGeometry>
        </mxCell>
        <mxCell id="_SDMGPXZtipDCqufldMR-68" value="Read Address Selector" style="edgeLabel;html=1;align=center;verticalAlign=middle;resizable=0;points=[];fontSize=13;" parent="_SDMGPXZtipDCqufldMR-67" vertex="1" connectable="0">
          <mxGeometry x="-0.1965" y="-1" relative="1" as="geometry">
            <mxPoint x="2" y="45" as="offset" />
          </mxGeometry>
        </mxCell>
        <mxCell id="_SDMGPXZtipDCqufldMR-69" value="" style="endArrow=classic;html=1;rounded=0;entryX=-0.052;entryY=0.679;entryDx=0;entryDy=0;entryPerimeter=0;strokeWidth=2;strokeColor=#009900;" parent="1" target="oJpyM_X3onIZimsuUFzw-68" edge="1">
          <mxGeometry relative="1" as="geometry">
            <mxPoint x="1130" y="1119.77" as="sourcePoint" />
            <mxPoint x="1457" y="1119.77" as="targetPoint" />
          </mxGeometry>
        </mxCell>
        <mxCell id="_SDMGPXZtipDCqufldMR-70" value="Read Address" style="edgeLabel;resizable=0;html=1;align=center;verticalAlign=middle;fontSize=13;" parent="_SDMGPXZtipDCqufldMR-69" connectable="0" vertex="1">
          <mxGeometry relative="1" as="geometry">
            <mxPoint x="121" as="offset" />
          </mxGeometry>
        </mxCell>
        <mxCell id="_SDMGPXZtipDCqufldMR-71" value="" style="endArrow=classic;html=1;rounded=0;strokeWidth=2;strokeColor=#009900;exitX=0.5;exitY=1;exitDx=0;exitDy=0;" parent="1" source="oJpyM_X3onIZimsuUFzw-91" edge="1">
          <mxGeometry relative="1" as="geometry">
            <mxPoint x="1410" y="995" as="sourcePoint" />
            <mxPoint x="1590" y="995" as="targetPoint" />
          </mxGeometry>
        </mxCell>
        <mxCell id="_SDMGPXZtipDCqufldMR-72" value="Write Address" style="edgeLabel;resizable=0;html=1;align=center;verticalAlign=middle;fontSize=13;" parent="_SDMGPXZtipDCqufldMR-71" connectable="0" vertex="1">
          <mxGeometry relative="1" as="geometry" />
        </mxCell>
        <mxCell id="_SDMGPXZtipDCqufldMR-74" value="" style="endArrow=none;html=1;rounded=0;exitX=1;exitY=0.5;exitDx=0;exitDy=0;fillColor=#fa6800;strokeColor=#C73500;strokeWidth=4;endFill=0;" parent="1" source="oJpyM_X3onIZimsuUFzw-67" edge="1">
          <mxGeometry width="50" height="50" relative="1" as="geometry">
            <mxPoint x="1920" y="620" as="sourcePoint" />
            <mxPoint x="2330" y="622" as="targetPoint" />
          </mxGeometry>
        </mxCell>
        <mxCell id="_SDMGPXZtipDCqufldMR-75" value="" style="endArrow=classic;html=1;rounded=0;startArrow=oval;startFill=1;fillColor=#e51400;strokeColor=#B20000;strokeWidth=2;entryX=0.246;entryY=-0.006;entryDx=0;entryDy=0;entryPerimeter=0;" parent="1" edge="1">
          <mxGeometry width="50" height="50" relative="1" as="geometry">
            <mxPoint x="1952" y="623" as="sourcePoint" />
            <mxPoint x="1952.1099999999997" y="760.152" as="targetPoint" />
          </mxGeometry>
        </mxCell>
        <mxCell id="_SDMGPXZtipDCqufldMR-76" value="MEM OP" style="edgeLabel;html=1;align=center;verticalAlign=middle;resizable=0;points=[];" parent="_SDMGPXZtipDCqufldMR-75" vertex="1" connectable="0">
          <mxGeometry x="-0.1362" y="1" relative="1" as="geometry">
            <mxPoint as="offset" />
          </mxGeometry>
        </mxCell>
        <mxCell id="_SDMGPXZtipDCqufldMR-77" value="" style="endArrow=classic;html=1;rounded=0;startArrow=oval;startFill=1;fillColor=#e51400;strokeColor=#B20000;strokeWidth=2;entryX=0.246;entryY=-0.006;entryDx=0;entryDy=0;entryPerimeter=0;" parent="1" edge="1">
          <mxGeometry width="50" height="50" relative="1" as="geometry">
            <mxPoint x="2011" y="623" as="sourcePoint" />
            <mxPoint x="2011" y="760" as="targetPoint" />
          </mxGeometry>
        </mxCell>
        <mxCell id="_SDMGPXZtipDCqufldMR-78" value="MEM READ" style="edgeLabel;html=1;align=center;verticalAlign=middle;resizable=0;points=[];" parent="_SDMGPXZtipDCqufldMR-77" vertex="1" connectable="0">
          <mxGeometry x="-0.1362" y="1" relative="1" as="geometry">
            <mxPoint as="offset" />
          </mxGeometry>
        </mxCell>
        <mxCell id="_SDMGPXZtipDCqufldMR-79" value="" style="endArrow=classic;html=1;rounded=0;startArrow=oval;startFill=1;fillColor=#e51400;strokeColor=#B20000;strokeWidth=2;entryX=0.246;entryY=-0.006;entryDx=0;entryDy=0;entryPerimeter=0;" parent="1" edge="1">
          <mxGeometry width="50" height="50" relative="1" as="geometry">
            <mxPoint x="2079" y="623" as="sourcePoint" />
            <mxPoint x="2079" y="760" as="targetPoint" />
          </mxGeometry>
        </mxCell>
        <mxCell id="_SDMGPXZtipDCqufldMR-80" value="MEM WRITE" style="edgeLabel;html=1;align=center;verticalAlign=middle;resizable=0;points=[];" parent="_SDMGPXZtipDCqufldMR-79" vertex="1" connectable="0">
          <mxGeometry x="-0.1362" y="1" relative="1" as="geometry">
            <mxPoint as="offset" />
          </mxGeometry>
        </mxCell>
        <mxCell id="_SDMGPXZtipDCqufldMR-81" value="" style="endArrow=classic;html=1;rounded=0;startArrow=oval;startFill=1;fillColor=#e51400;strokeColor=#B20000;strokeWidth=2;entryX=0.246;entryY=-0.006;entryDx=0;entryDy=0;entryPerimeter=0;" parent="1" edge="1">
          <mxGeometry width="50" height="50" relative="1" as="geometry">
            <mxPoint x="2132" y="622" as="sourcePoint" />
            <mxPoint x="2132" y="759" as="targetPoint" />
          </mxGeometry>
        </mxCell>
        <mxCell id="_SDMGPXZtipDCqufldMR-82" value="Data Bus Selector" style="edgeLabel;html=1;align=center;verticalAlign=middle;resizable=0;points=[];" parent="_SDMGPXZtipDCqufldMR-81" vertex="1" connectable="0">
          <mxGeometry x="-0.1362" y="1" relative="1" as="geometry">
            <mxPoint y="-25" as="offset" />
          </mxGeometry>
        </mxCell>
        <mxCell id="_SDMGPXZtipDCqufldMR-83" value="" style="endArrow=classic;html=1;rounded=1;entryX=-0.009;entryY=0.191;entryDx=0;entryDy=0;entryPerimeter=0;exitX=1.021;exitY=0.091;exitDx=0;exitDy=0;exitPerimeter=0;edgeStyle=orthogonalEdgeStyle;strokeWidth=2;" parent="1" source="oJpyM_X3onIZimsuUFzw-68" target="oJpyM_X3onIZimsuUFzw-56" edge="1">
          <mxGeometry width="50" height="50" relative="1" as="geometry">
            <mxPoint x="1670" y="970" as="sourcePoint" />
            <mxPoint x="1720" y="920" as="targetPoint" />
          </mxGeometry>
        </mxCell>
        <mxCell id="_SDMGPXZtipDCqufldMR-87" value="Data to be Written" style="edgeLabel;html=1;align=center;verticalAlign=middle;resizable=0;points=[];fontSize=13;" parent="_SDMGPXZtipDCqufldMR-83" vertex="1" connectable="0">
          <mxGeometry x="-0.0806" y="-2" relative="1" as="geometry">
            <mxPoint as="offset" />
          </mxGeometry>
        </mxCell>
        <mxCell id="_SDMGPXZtipDCqufldMR-88" value="" style="endArrow=classic;html=1;rounded=0;strokeWidth=2;strokeColor=#009900;exitX=1;exitY=0.5;exitDx=0;exitDy=0;entryX=-0.014;entryY=0.758;entryDx=0;entryDy=0;entryPerimeter=0;" parent="1" edge="1">
          <mxGeometry relative="1" as="geometry">
            <mxPoint x="1663" y="995" as="sourcePoint" />
            <mxPoint x="1899.0100000000002" y="995.4639999999999" as="targetPoint" />
          </mxGeometry>
        </mxCell>
        <mxCell id="_SDMGPXZtipDCqufldMR-89" value="Write Address" style="edgeLabel;resizable=0;html=1;align=center;verticalAlign=middle;fontSize=13;" parent="_SDMGPXZtipDCqufldMR-88" connectable="0" vertex="1">
          <mxGeometry relative="1" as="geometry" />
        </mxCell>
        <mxCell id="_SDMGPXZtipDCqufldMR-90" value="" style="endArrow=classic;html=1;rounded=1;entryX=0.5;entryY=1;entryDx=0;entryDy=0;entryPerimeter=0;strokeWidth=2;strokeColor=#009900;exitX=1.078;exitY=0.682;exitDx=0;exitDy=0;exitPerimeter=0;edgeStyle=orthogonalEdgeStyle;" parent="1" source="oJpyM_X3onIZimsuUFzw-68" target="oJpyM_X3onIZimsuUFzw-56" edge="1">
          <mxGeometry relative="1" as="geometry">
            <mxPoint x="1820" y="1060" as="sourcePoint" />
            <mxPoint x="2276" y="1060.23" as="targetPoint" />
          </mxGeometry>
        </mxCell>
        <mxCell id="_SDMGPXZtipDCqufldMR-91" value="Read Address" style="edgeLabel;resizable=0;html=1;align=center;verticalAlign=middle;fontSize=13;" parent="_SDMGPXZtipDCqufldMR-90" connectable="0" vertex="1">
          <mxGeometry relative="1" as="geometry" />
        </mxCell>
        <mxCell id="_SDMGPXZtipDCqufldMR-92" value="" style="endArrow=classic;html=1;rounded=0;exitX=1.041;exitY=0.795;exitDx=0;exitDy=0;exitPerimeter=0;strokeWidth=2;entryX=-0.035;entryY=0.485;entryDx=0;entryDy=0;entryPerimeter=0;" parent="1" source="oJpyM_X3onIZimsuUFzw-68" target="_SDMGPXZtipDCqufldMR-93" edge="1">
          <mxGeometry width="50" height="50" relative="1" as="geometry">
            <mxPoint x="2000" y="1090" as="sourcePoint" />
            <mxPoint x="2070" y="1200" as="targetPoint" />
          </mxGeometry>
        </mxCell>
        <mxCell id="_SDMGPXZtipDCqufldMR-94" value="New Flags" style="edgeLabel;html=1;align=center;verticalAlign=middle;resizable=0;points=[];fontSize=13;" parent="_SDMGPXZtipDCqufldMR-92" vertex="1" connectable="0">
          <mxGeometry x="0.1969" relative="1" as="geometry">
            <mxPoint as="offset" />
          </mxGeometry>
        </mxCell>
        <mxCell id="_SDMGPXZtipDCqufldMR-93" value="Sign Extend" style="ellipse;whiteSpace=wrap;html=1;" parent="1" vertex="1">
          <mxGeometry x="2080" y="1152" width="80" height="102.5" as="geometry" />
        </mxCell>
        <mxCell id="_SDMGPXZtipDCqufldMR-95" value="" style="endArrow=classic;html=1;rounded=1;edgeStyle=orthogonalEdgeStyle;startArrow=oval;startFill=1;strokeWidth=2;entryX=-0.023;entryY=0.827;entryDx=0;entryDy=0;entryPerimeter=0;" parent="1" edge="1">
          <mxGeometry width="50" height="50" relative="1" as="geometry">
            <mxPoint x="1850" y="1203" as="sourcePoint" />
            <mxPoint x="2348.3900000000003" y="1277.22" as="targetPoint" />
            <Array as="points">
              <mxPoint x="1850" y="1277" />
            </Array>
          </mxGeometry>
        </mxCell>
        <mxCell id="_SDMGPXZtipDCqufldMR-96" value="New Flags" style="edgeLabel;html=1;align=center;verticalAlign=middle;resizable=0;points=[];fontSize=13;" parent="1" vertex="1" connectable="0">
          <mxGeometry x="1920.6960543621926" y="1211.627104087447" as="geometry">
            <mxPoint x="136" y="67" as="offset" />
          </mxGeometry>
        </mxCell>
        <mxCell id="_SDMGPXZtipDCqufldMR-97" value="Extended New Flags" style="endArrow=classic;html=1;rounded=0;exitX=0.5;exitY=0;exitDx=0;exitDy=0;entryX=0.771;entryY=1.005;entryDx=0;entryDy=0;entryPerimeter=0;strokeWidth=2;fontSize=13;" parent="1" source="_SDMGPXZtipDCqufldMR-93" target="oJpyM_X3onIZimsuUFzw-56" edge="1">
          <mxGeometry width="50" height="50" relative="1" as="geometry">
            <mxPoint x="2080" y="1150" as="sourcePoint" />
            <mxPoint x="2130" y="1100" as="targetPoint" />
          </mxGeometry>
        </mxCell>
        <mxCell id="_SDMGPXZtipDCqufldMR-103" value="" style="endArrow=classic;html=1;rounded=1;entryX=0.011;entryY=0.882;entryDx=0;entryDy=0;entryPerimeter=0;edgeStyle=orthogonalEdgeStyle;fillColor=#76608a;strokeColor=#009900;strokeWidth=2;" parent="1" target="oJpyM_X3onIZimsuUFzw-60" edge="1">
          <mxGeometry width="50" height="50" relative="1" as="geometry">
            <mxPoint x="1660" y="1280" as="sourcePoint" />
            <mxPoint x="2100" y="1010" as="targetPoint" />
            <Array as="points">
              <mxPoint x="1790" y="1280" />
              <mxPoint x="1790" y="1324" />
              <mxPoint x="2310" y="1324" />
            </Array>
          </mxGeometry>
        </mxCell>
        <mxCell id="_SDMGPXZtipDCqufldMR-104" value="Rd Address" style="edgeLabel;html=1;align=center;verticalAlign=middle;resizable=0;points=[];fontSize=13;" parent="_SDMGPXZtipDCqufldMR-103" vertex="1" connectable="0">
          <mxGeometry x="0.078" y="-2" relative="1" as="geometry">
            <mxPoint as="offset" />
          </mxGeometry>
        </mxCell>
        <mxCell id="_SDMGPXZtipDCqufldMR-105" value="" style="endArrow=classic;html=1;rounded=1;edgeStyle=orthogonalEdgeStyle;strokeWidth=2;" parent="1" edge="1">
          <mxGeometry width="50" height="50" relative="1" as="geometry">
            <mxPoint x="1660" y="890" as="sourcePoint" />
            <mxPoint x="2350" y="1400" as="targetPoint" />
            <Array as="points">
              <mxPoint x="1730" y="890" />
              <mxPoint x="1730" y="1400" />
              <mxPoint x="2210" y="1400" />
            </Array>
          </mxGeometry>
        </mxCell>
        <mxCell id="_SDMGPXZtipDCqufldMR-109" value="ALU RESULT/ Immediate Value" style="edgeLabel;html=1;align=center;verticalAlign=middle;resizable=0;points=[];fontSize=13;" parent="_SDMGPXZtipDCqufldMR-105" vertex="1" connectable="0">
          <mxGeometry x="0.3868" y="-3" relative="1" as="geometry">
            <mxPoint y="-3" as="offset" />
          </mxGeometry>
        </mxCell>
        <mxCell id="_SDMGPXZtipDCqufldMR-110" value="" style="endArrow=classic;html=1;rounded=0;strokeWidth=2;" parent="1" edge="1">
          <mxGeometry width="50" height="50" relative="1" as="geometry">
            <mxPoint x="2187" y="840" as="sourcePoint" />
            <mxPoint x="2348" y="840" as="targetPoint" />
          </mxGeometry>
        </mxCell>
        <mxCell id="_SDMGPXZtipDCqufldMR-111" value="Data Read" style="edgeLabel;html=1;align=center;verticalAlign=middle;resizable=0;points=[];fontSize=13;" parent="_SDMGPXZtipDCqufldMR-110" vertex="1" connectable="0">
          <mxGeometry x="-0.104" y="-1" relative="1" as="geometry">
            <mxPoint as="offset" />
          </mxGeometry>
        </mxCell>
        <mxCell id="_SDMGPXZtipDCqufldMR-112" value="" style="endArrow=classic;html=1;rounded=0;strokeWidth=2;fontSize=13;" parent="1" edge="1">
          <mxGeometry width="50" height="50" relative="1" as="geometry">
            <mxPoint x="2187" y="920" as="sourcePoint" />
            <mxPoint x="2348" y="920" as="targetPoint" />
          </mxGeometry>
        </mxCell>
        <mxCell id="_SDMGPXZtipDCqufldMR-113" value="Flags Read" style="edgeLabel;html=1;align=center;verticalAlign=middle;resizable=0;points=[];fontSize=13;" parent="_SDMGPXZtipDCqufldMR-112" vertex="1" connectable="0">
          <mxGeometry x="-0.104" y="-1" relative="1" as="geometry">
            <mxPoint as="offset" />
          </mxGeometry>
        </mxCell>
        <mxCell id="_SDMGPXZtipDCqufldMR-115" style="html=1;overflow=block;blockSpacing=1;whiteSpace=wrap;shape=trapezoid;perimeter=trapezoidPerimeter;anchorPointDirection=0;flipV=1;fontSize=16.7;fontColor=#3a414a;spacing=3.8;strokeColor=#3a414a;strokeOpacity=100;rounded=1;absoluteArcSize=1;arcSize=9;rotation=-90;strokeWidth=2;lucidId=eCmLYlLbR1Ar;" parent="1" vertex="1">
          <mxGeometry x="3034" y="1020" width="120" height="90" as="geometry" />
        </mxCell>
        <mxCell id="_SDMGPXZtipDCqufldMR-116" value="MUX" style="html=1;overflow=block;blockSpacing=1;whiteSpace=wrap;shape=trapezoid;perimeter=trapezoidPerimeter;anchorPointDirection=0;flipV=1;fontSize=16.7;fontColor=#3a414a;spacing=3.8;strokeOpacity=100;rounded=1;absoluteArcSize=1;arcSize=9;strokeWidth=1.5;lucidId=eCmLYlLbR1Ar;fillColor=none;strokeColor=none;rotation=-360;" parent="_SDMGPXZtipDCqufldMR-115" vertex="1">
          <mxGeometry x="0.125" y="-0.16666666666666666" width="90" height="120" relative="1" as="geometry" />
        </mxCell>
        <mxCell id="_SDMGPXZtipDCqufldMR-117" value="0" style="html=1;overflow=block;blockSpacing=1;whiteSpace=wrap;fontSize=16.7;fontColor=#3a414a;spacing=3.8;strokeOpacity=0;fillOpacity=0;rounded=1;absoluteArcSize=1;arcSize=9;fillColor=#ffffff;strokeWidth=0.8;lucidId=WRmLaLrrVqPS;" parent="_SDMGPXZtipDCqufldMR-115" vertex="1">
          <mxGeometry x="20" y="62" width="30" height="30" as="geometry" />
        </mxCell>
        <mxCell id="_SDMGPXZtipDCqufldMR-118" value="1" style="html=1;overflow=block;blockSpacing=1;whiteSpace=wrap;fontSize=16.7;fontColor=#3a414a;spacing=3.8;strokeOpacity=0;fillOpacity=0;rounded=1;absoluteArcSize=1;arcSize=9;fillColor=#ffffff;strokeWidth=0.8;lucidId=9RmLGIltzn3M;" parent="_SDMGPXZtipDCqufldMR-115" vertex="1">
          <mxGeometry x="20" y="1" width="30" height="30" as="geometry" />
        </mxCell>
        <mxCell id="_SDMGPXZtipDCqufldMR-119" value="" style="endArrow=classic;html=1;rounded=1;exitX=1.067;exitY=0.416;exitDx=0;exitDy=0;exitPerimeter=0;entryX=-0.041;entryY=0.747;entryDx=0;entryDy=0;entryPerimeter=0;edgeStyle=orthogonalEdgeStyle;strokeWidth=2;" parent="1" source="oJpyM_X3onIZimsuUFzw-60" target="_SDMGPXZtipDCqufldMR-116" edge="1">
          <mxGeometry width="50" height="50" relative="1" as="geometry">
            <mxPoint x="2739.8" y="921.9000000000001" as="sourcePoint" />
            <mxPoint x="3045.000000000001" y="1095.0000000000002" as="targetPoint" />
            <Array as="points">
              <mxPoint x="2490" y="923" />
              <mxPoint x="2490" y="1035" />
            </Array>
          </mxGeometry>
        </mxCell>
        <mxCell id="_SDMGPXZtipDCqufldMR-122" value="MEM FLAGS" style="edgeLabel;html=1;align=center;verticalAlign=middle;resizable=0;points=[];fontSize=13;" parent="_SDMGPXZtipDCqufldMR-119" vertex="1" connectable="0">
          <mxGeometry x="0.0369" y="-5" relative="1" as="geometry">
            <mxPoint x="44" y="-1" as="offset" />
          </mxGeometry>
        </mxCell>
        <mxCell id="_SDMGPXZtipDCqufldMR-121" value="" style="endArrow=classic;html=1;rounded=1;exitX=1.101;exitY=0.82;exitDx=0;exitDy=0;exitPerimeter=0;entryX=0.207;entryY=1.023;entryDx=0;entryDy=0;edgeStyle=orthogonalEdgeStyle;entryPerimeter=0;strokeWidth=2;" parent="1" source="oJpyM_X3onIZimsuUFzw-60" target="_SDMGPXZtipDCqufldMR-115" edge="1">
          <mxGeometry width="50" height="50" relative="1" as="geometry">
            <mxPoint x="2736.8599999999997" y="1277.94" as="sourcePoint" />
            <mxPoint x="3045" y="1095" as="targetPoint" />
            <Array as="points">
              <mxPoint x="2490" y="1270" />
              <mxPoint x="2490" y="1100" />
            </Array>
          </mxGeometry>
        </mxCell>
        <mxCell id="_SDMGPXZtipDCqufldMR-123" value="ALU FLAGS" style="edgeLabel;html=1;align=center;verticalAlign=middle;resizable=0;points=[];fontSize=13;" parent="_SDMGPXZtipDCqufldMR-121" vertex="1" connectable="0">
          <mxGeometry x="0.157" y="3" relative="1" as="geometry">
            <mxPoint x="26" as="offset" />
          </mxGeometry>
        </mxCell>
        <mxCell id="_SDMGPXZtipDCqufldMR-124" value="" style="endArrow=none;html=1;rounded=0;exitX=1;exitY=0.5;exitDx=0;exitDy=0;fillColor=#fa6800;strokeColor=#C73500;strokeWidth=4;endFill=0;" parent="1" edge="1">
          <mxGeometry width="50" height="50" relative="1" as="geometry">
            <mxPoint x="2424" y="543" as="sourcePoint" />
            <mxPoint x="3620" y="543" as="targetPoint" />
          </mxGeometry>
        </mxCell>
        <mxCell id="_SDMGPXZtipDCqufldMR-125" value="" style="endArrow=classic;html=1;rounded=0;startArrow=oval;startFill=1;strokeWidth=2;fillColor=#e51400;strokeColor=#B20000;" parent="1" edge="1">
          <mxGeometry width="50" height="50" relative="1" as="geometry">
            <mxPoint x="3094" y="542" as="sourcePoint" />
            <mxPoint x="3094" y="1013" as="targetPoint" />
          </mxGeometry>
        </mxCell>
        <mxCell id="_SDMGPXZtipDCqufldMR-126" value="Flag Selector" style="edgeLabel;html=1;align=center;verticalAlign=middle;resizable=0;points=[];fontSize=14;" parent="_SDMGPXZtipDCqufldMR-125" vertex="1" connectable="0">
          <mxGeometry x="-0.0784" y="2" relative="1" as="geometry">
            <mxPoint x="-2" y="-92" as="offset" />
          </mxGeometry>
        </mxCell>
        <mxCell id="_SDMGPXZtipDCqufldMR-135" style="html=1;overflow=block;blockSpacing=1;whiteSpace=wrap;shape=trapezoid;perimeter=trapezoidPerimeter;anchorPointDirection=0;flipV=1;fontSize=16.7;fontColor=#3a414a;spacing=3.8;strokeColor=#3a414a;strokeOpacity=100;rounded=1;absoluteArcSize=1;arcSize=9;rotation=-90;strokeWidth=2;lucidId=eCmLYlLbR1Ar;" parent="1" vertex="1">
          <mxGeometry x="2639" y="721" width="120" height="90" as="geometry" />
        </mxCell>
        <mxCell id="_SDMGPXZtipDCqufldMR-136" value="MUX" style="html=1;overflow=block;blockSpacing=1;whiteSpace=wrap;shape=trapezoid;perimeter=trapezoidPerimeter;anchorPointDirection=0;flipV=1;fontSize=16.7;fontColor=#3a414a;spacing=3.8;strokeOpacity=100;rounded=1;absoluteArcSize=1;arcSize=9;strokeWidth=1.5;lucidId=eCmLYlLbR1Ar;fillColor=none;strokeColor=none;rotation=-360;" parent="_SDMGPXZtipDCqufldMR-135" vertex="1">
          <mxGeometry x="0.125" y="-0.16666666666666666" width="90" height="120" relative="1" as="geometry" />
        </mxCell>
        <mxCell id="_SDMGPXZtipDCqufldMR-137" value="0" style="html=1;overflow=block;blockSpacing=1;whiteSpace=wrap;fontSize=16.7;fontColor=#3a414a;spacing=3.8;strokeOpacity=0;fillOpacity=0;rounded=1;absoluteArcSize=1;arcSize=9;fillColor=#ffffff;strokeWidth=0.8;lucidId=WRmLaLrrVqPS;" parent="_SDMGPXZtipDCqufldMR-135" vertex="1">
          <mxGeometry x="20" y="62" width="30" height="30" as="geometry" />
        </mxCell>
        <mxCell id="_SDMGPXZtipDCqufldMR-138" value="1" style="html=1;overflow=block;blockSpacing=1;whiteSpace=wrap;fontSize=16.7;fontColor=#3a414a;spacing=3.8;strokeOpacity=0;fillOpacity=0;rounded=1;absoluteArcSize=1;arcSize=9;fillColor=#ffffff;strokeWidth=0.8;lucidId=9RmLGIltzn3M;" parent="_SDMGPXZtipDCqufldMR-135" vertex="1">
          <mxGeometry x="19" y="1" width="30" height="30" as="geometry" />
        </mxCell>
        <mxCell id="_SDMGPXZtipDCqufldMR-139" value="" style="endArrow=classic;html=1;rounded=1;exitX=1.037;exitY=0.322;exitDx=0;exitDy=0;exitPerimeter=0;edgeStyle=orthogonalEdgeStyle;strokeWidth=2;" parent="1" source="oJpyM_X3onIZimsuUFzw-60" edge="1">
          <mxGeometry width="50" height="50" relative="1" as="geometry">
            <mxPoint x="2390" y="1050" as="sourcePoint" />
            <mxPoint x="2650" y="740" as="targetPoint" />
          </mxGeometry>
        </mxCell>
        <mxCell id="_SDMGPXZtipDCqufldMR-142" value="MEM RESULT" style="edgeLabel;html=1;align=center;verticalAlign=middle;resizable=0;points=[];" parent="_SDMGPXZtipDCqufldMR-139" vertex="1" connectable="0">
          <mxGeometry x="-0.0948" y="-3" relative="1" as="geometry">
            <mxPoint y="-1" as="offset" />
          </mxGeometry>
        </mxCell>
        <mxCell id="_SDMGPXZtipDCqufldMR-141" value="ALU RESULT" style="endArrow=classic;html=1;rounded=1;exitX=1.037;exitY=0.322;exitDx=0;exitDy=0;exitPerimeter=0;edgeStyle=orthogonalEdgeStyle;strokeWidth=2;" parent="1" edge="1">
          <mxGeometry x="0.581" width="50" height="50" relative="1" as="geometry">
            <mxPoint x="2430" y="1399" as="sourcePoint" />
            <mxPoint x="2650" y="798" as="targetPoint" />
            <Array as="points">
              <mxPoint x="2590" y="1399" />
              <mxPoint x="2590" y="798" />
            </Array>
            <mxPoint y="-1" as="offset" />
          </mxGeometry>
        </mxCell>
        <mxCell id="_SDMGPXZtipDCqufldMR-143" value="" style="endArrow=classic;html=1;rounded=0;startArrow=oval;startFill=1;fillColor=#e51400;strokeColor=#B20000;strokeWidth=2;" parent="1" edge="1">
          <mxGeometry width="50" height="50" relative="1" as="geometry">
            <mxPoint x="2720" y="543" as="sourcePoint" />
            <mxPoint x="2720" y="710" as="targetPoint" />
          </mxGeometry>
        </mxCell>
        <mxCell id="_SDMGPXZtipDCqufldMR-144" value="Data Selector" style="edgeLabel;html=1;align=center;verticalAlign=middle;resizable=0;points=[];fontSize=13;" parent="_SDMGPXZtipDCqufldMR-143" vertex="1" connectable="0">
          <mxGeometry x="-0.1362" y="1" relative="1" as="geometry">
            <mxPoint y="2" as="offset" />
          </mxGeometry>
        </mxCell>
        <mxCell id="_SDMGPXZtipDCqufldMR-149" style="html=1;overflow=block;blockSpacing=1;whiteSpace=wrap;shape=trapezoid;perimeter=trapezoidPerimeter;anchorPointDirection=0;flipV=1;fontSize=16.7;fontColor=#3a414a;spacing=3.8;strokeColor=#3a414a;strokeOpacity=100;rounded=1;absoluteArcSize=1;arcSize=9;rotation=-90;strokeWidth=2;lucidId=eCmLYlLbR1Ar;" parent="1" vertex="1">
          <mxGeometry x="2880" y="748" width="120" height="90" as="geometry" />
        </mxCell>
        <mxCell id="_SDMGPXZtipDCqufldMR-150" value="MUX" style="html=1;overflow=block;blockSpacing=1;whiteSpace=wrap;shape=trapezoid;perimeter=trapezoidPerimeter;anchorPointDirection=0;flipV=1;fontSize=16.7;fontColor=#3a414a;spacing=3.8;strokeOpacity=100;rounded=1;absoluteArcSize=1;arcSize=9;strokeWidth=1.5;lucidId=eCmLYlLbR1Ar;fillColor=none;strokeColor=none;rotation=-360;" parent="_SDMGPXZtipDCqufldMR-149" vertex="1">
          <mxGeometry x="0.125" y="-0.16666666666666666" width="90" height="120" relative="1" as="geometry" />
        </mxCell>
        <mxCell id="_SDMGPXZtipDCqufldMR-151" value="0" style="html=1;overflow=block;blockSpacing=1;whiteSpace=wrap;fontSize=16.7;fontColor=#3a414a;spacing=3.8;strokeOpacity=0;fillOpacity=0;rounded=1;absoluteArcSize=1;arcSize=9;fillColor=#ffffff;strokeWidth=0.8;lucidId=WRmLaLrrVqPS;" parent="_SDMGPXZtipDCqufldMR-149" vertex="1">
          <mxGeometry x="20" y="7" width="30" height="30" as="geometry" />
        </mxCell>
        <mxCell id="_SDMGPXZtipDCqufldMR-152" value="1" style="html=1;overflow=block;blockSpacing=1;whiteSpace=wrap;fontSize=16.7;fontColor=#3a414a;spacing=3.8;strokeOpacity=0;fillOpacity=0;rounded=1;absoluteArcSize=1;arcSize=9;fillColor=#ffffff;strokeWidth=0.8;lucidId=9RmLGIltzn3M;" parent="_SDMGPXZtipDCqufldMR-149" vertex="1">
          <mxGeometry x="20" y="60" width="30" height="30" as="geometry" />
        </mxCell>
        <mxCell id="_SDMGPXZtipDCqufldMR-153" value="" style="endArrow=classic;html=1;rounded=0;exitX=1.033;exitY=0.494;exitDx=0;exitDy=0;exitPerimeter=0;entryX=-0.012;entryY=0.717;entryDx=0;entryDy=0;entryPerimeter=0;strokeWidth=2;" parent="1" source="_SDMGPXZtipDCqufldMR-136" target="_SDMGPXZtipDCqufldMR-150" edge="1">
          <mxGeometry width="50" height="50" relative="1" as="geometry">
            <mxPoint x="2860" y="770" as="sourcePoint" />
            <mxPoint x="2910" y="720" as="targetPoint" />
          </mxGeometry>
        </mxCell>
        <mxCell id="_SDMGPXZtipDCqufldMR-154" value="" style="endArrow=classic;html=1;rounded=0;exitX=1.033;exitY=0.494;exitDx=0;exitDy=0;exitPerimeter=0;entryX=-0.012;entryY=0.717;entryDx=0;entryDy=0;entryPerimeter=0;strokeWidth=2;strokeColor=#6600CC;" parent="1" edge="1">
          <mxGeometry width="50" height="50" relative="1" as="geometry">
            <mxPoint x="2745" y="828" as="sourcePoint" />
            <mxPoint x="2892" y="828" as="targetPoint" />
          </mxGeometry>
        </mxCell>
        <mxCell id="_SDMGPXZtipDCqufldMR-155" value="IN PORT" style="edgeLabel;html=1;align=center;verticalAlign=middle;resizable=0;points=[];fontSize=13;" parent="_SDMGPXZtipDCqufldMR-154" vertex="1" connectable="0">
          <mxGeometry x="-0.2402" y="1" relative="1" as="geometry">
            <mxPoint x="10" as="offset" />
          </mxGeometry>
        </mxCell>
        <mxCell id="_SDMGPXZtipDCqufldMR-156" value="" style="endArrow=classic;html=1;rounded=0;startArrow=oval;startFill=1;fillColor=#e51400;strokeColor=#B20000;strokeWidth=2;entryX=0.5;entryY=0;entryDx=0;entryDy=0;" parent="1" target="_SDMGPXZtipDCqufldMR-150" edge="1">
          <mxGeometry width="50" height="50" relative="1" as="geometry">
            <mxPoint x="2939.29" y="542.5" as="sourcePoint" />
            <mxPoint x="2939.29" y="709.5" as="targetPoint" />
          </mxGeometry>
        </mxCell>
        <mxCell id="_SDMGPXZtipDCqufldMR-157" value="IN Data Selector" style="edgeLabel;html=1;align=center;verticalAlign=middle;resizable=0;points=[];fontSize=13;" parent="_SDMGPXZtipDCqufldMR-156" vertex="1" connectable="0">
          <mxGeometry x="-0.1362" y="1" relative="1" as="geometry">
            <mxPoint y="2" as="offset" />
          </mxGeometry>
        </mxCell>
        <mxCell id="_SDMGPXZtipDCqufldMR-158" value="" style="endArrow=classic;html=1;rounded=1;edgeStyle=orthogonalEdgeStyle;strokeWidth=2;entryX=-0.064;entryY=0.57;entryDx=0;entryDy=0;entryPerimeter=0;" parent="1" edge="1">
          <mxGeometry width="50" height="50" relative="1" as="geometry">
            <mxPoint x="3144" y="1067" as="sourcePoint" />
            <mxPoint x="-567.9100000000001" y="1170.6" as="targetPoint" />
            <Array as="points">
              <mxPoint x="3335.93" y="1067" />
              <mxPoint x="3335.93" y="1625" />
              <mxPoint x="-604.07" y="1625" />
              <mxPoint x="-604.07" y="1171" />
            </Array>
          </mxGeometry>
        </mxCell>
        <mxCell id="_SDMGPXZtipDCqufldMR-159" value="WB FLAGS" style="edgeLabel;html=1;align=center;verticalAlign=middle;resizable=0;points=[];fontSize=13;" parent="_SDMGPXZtipDCqufldMR-158" vertex="1" connectable="0">
          <mxGeometry x="0.954" y="3" relative="1" as="geometry">
            <mxPoint x="3" y="-4" as="offset" />
          </mxGeometry>
        </mxCell>
        <mxCell id="_SDMGPXZtipDCqufldMR-160" value="WB FLAGS" style="edgeLabel;html=1;align=center;verticalAlign=middle;resizable=0;points=[];fontSize=13;" parent="_SDMGPXZtipDCqufldMR-158" vertex="1" connectable="0">
          <mxGeometry x="-0.9314" y="-3" relative="1" as="geometry">
            <mxPoint y="47" as="offset" />
          </mxGeometry>
        </mxCell>
        <mxCell id="_SDMGPXZtipDCqufldMR-162" value="" style="endArrow=classic;html=1;rounded=1;startArrow=oval;startFill=1;strokeWidth=2;fillColor=#e51400;strokeColor=#B20000;edgeStyle=orthogonalEdgeStyle;" parent="1" edge="1">
          <mxGeometry width="50" height="50" relative="1" as="geometry">
            <mxPoint x="3441.93" y="543" as="sourcePoint" />
            <mxPoint x="-528.026748046875" y="1216" as="targetPoint" />
            <Array as="points">
              <mxPoint x="3441.93" y="1703" />
              <mxPoint x="-528.07" y="1703" />
            </Array>
          </mxGeometry>
        </mxCell>
        <mxCell id="_SDMGPXZtipDCqufldMR-163" value="FLAG ENABLE" style="edgeLabel;html=1;align=center;verticalAlign=middle;resizable=0;points=[];fontSize=14;" parent="_SDMGPXZtipDCqufldMR-162" vertex="1" connectable="0">
          <mxGeometry x="-0.0784" y="2" relative="1" as="geometry">
            <mxPoint x="-2" y="-92" as="offset" />
          </mxGeometry>
        </mxCell>
        <mxCell id="_SDMGPXZtipDCqufldMR-164" value="FLAG ENABLE" style="edgeLabel;html=1;align=center;verticalAlign=middle;resizable=0;points=[];fontSize=13;" parent="_SDMGPXZtipDCqufldMR-162" vertex="1" connectable="0">
          <mxGeometry x="0.986" y="-1" relative="1" as="geometry">
            <mxPoint y="65" as="offset" />
          </mxGeometry>
        </mxCell>
        <mxCell id="_SDMGPXZtipDCqufldMR-165" value="FLAG ENABLE" style="edgeLabel;html=1;align=center;verticalAlign=middle;resizable=0;points=[];fontSize=13;" parent="_SDMGPXZtipDCqufldMR-162" vertex="1" connectable="0">
          <mxGeometry x="-0.9691" y="2" relative="1" as="geometry">
            <mxPoint as="offset" />
          </mxGeometry>
        </mxCell>
        <mxCell id="_SDMGPXZtipDCqufldMR-166" value="" style="endArrow=classic;html=1;rounded=1;startArrow=oval;startFill=1;strokeWidth=2;fillColor=#e51400;strokeColor=#B20000;edgeStyle=orthogonalEdgeStyle;entryX=0.145;entryY=1;entryDx=0;entryDy=-1.16;entryPerimeter=0;" parent="1" target="C16ASnKl_FtYkdsgSsSQ-5" edge="1">
          <mxGeometry width="50" height="50" relative="1" as="geometry">
            <mxPoint x="3510" y="542.97" as="sourcePoint" />
            <mxPoint x="-459.95674804687496" y="1215.97" as="targetPoint" />
            <Array as="points">
              <mxPoint x="3510" y="1770" />
              <mxPoint x="-721" y="1770" />
            </Array>
          </mxGeometry>
        </mxCell>
        <mxCell id="_SDMGPXZtipDCqufldMR-167" value="FLAG ENABLE" style="edgeLabel;html=1;align=center;verticalAlign=middle;resizable=0;points=[];fontSize=14;" parent="_SDMGPXZtipDCqufldMR-166" vertex="1" connectable="0">
          <mxGeometry x="-0.0784" y="2" relative="1" as="geometry">
            <mxPoint x="-2" y="-92" as="offset" />
          </mxGeometry>
        </mxCell>
        <mxCell id="_SDMGPXZtipDCqufldMR-168" value="REG &lt;br style=&quot;font-size: 13px;&quot;&gt;FILE ENABLE" style="edgeLabel;html=1;align=center;verticalAlign=middle;resizable=0;points=[];fontSize=13;" parent="_SDMGPXZtipDCqufldMR-166" vertex="1" connectable="0">
          <mxGeometry x="0.986" y="-1" relative="1" as="geometry">
            <mxPoint y="13" as="offset" />
          </mxGeometry>
        </mxCell>
        <mxCell id="_SDMGPXZtipDCqufldMR-169" value="REG&lt;br&gt;&amp;nbsp;FILE ENABLE" style="edgeLabel;html=1;align=center;verticalAlign=middle;resizable=0;points=[];fontSize=13;" parent="_SDMGPXZtipDCqufldMR-166" vertex="1" connectable="0">
          <mxGeometry x="-0.9691" y="2" relative="1" as="geometry">
            <mxPoint y="50" as="offset" />
          </mxGeometry>
        </mxCell>
        <mxCell id="_SDMGPXZtipDCqufldMR-179" value="REG FILE ENABLE" style="edgeLabel;html=1;align=center;verticalAlign=middle;resizable=0;points=[];fontSize=13;" parent="_SDMGPXZtipDCqufldMR-166" vertex="1" connectable="0">
          <mxGeometry x="-0.0106" y="-3" relative="1" as="geometry">
            <mxPoint x="1" as="offset" />
          </mxGeometry>
        </mxCell>
        <mxCell id="_SDMGPXZtipDCqufldMR-170" style="edgeStyle=orthogonalEdgeStyle;rounded=1;orthogonalLoop=1;jettySize=auto;html=1;entryX=-0.007;entryY=0.883;entryDx=0;entryDy=0;entryPerimeter=0;strokeWidth=2;" parent="1" target="C16ASnKl_FtYkdsgSsSQ-5" edge="1">
          <mxGeometry relative="1" as="geometry">
            <mxPoint x="-750" y="1130" as="targetPoint" />
            <mxPoint x="2990" y="793" as="sourcePoint" />
            <Array as="points">
              <mxPoint x="3200" y="793" />
              <mxPoint x="3200" y="1870" />
              <mxPoint x="-840" y="1870" />
              <mxPoint x="-840" y="1060" />
            </Array>
          </mxGeometry>
        </mxCell>
        <mxCell id="_SDMGPXZtipDCqufldMR-171" value="WB DATA" style="edgeLabel;html=1;align=center;verticalAlign=middle;resizable=0;points=[];fontSize=13;" parent="_SDMGPXZtipDCqufldMR-170" vertex="1" connectable="0">
          <mxGeometry x="0.9421" y="-2" relative="1" as="geometry">
            <mxPoint as="offset" />
          </mxGeometry>
        </mxCell>
        <mxCell id="_SDMGPXZtipDCqufldMR-172" value="WB DATA" style="edgeLabel;html=1;align=center;verticalAlign=middle;resizable=0;points=[];fontSize=14;" parent="_SDMGPXZtipDCqufldMR-170" vertex="1" connectable="0">
          <mxGeometry x="-0.9139" y="5" relative="1" as="geometry">
            <mxPoint as="offset" />
          </mxGeometry>
        </mxCell>
        <mxCell id="_SDMGPXZtipDCqufldMR-181" value="WB DATA" style="edgeLabel;html=1;align=center;verticalAlign=middle;resizable=0;points=[];fontSize=13;" parent="_SDMGPXZtipDCqufldMR-170" vertex="1" connectable="0">
          <mxGeometry x="-0.0213" relative="1" as="geometry">
            <mxPoint as="offset" />
          </mxGeometry>
        </mxCell>
        <mxCell id="_SDMGPXZtipDCqufldMR-173" value="" style="endArrow=classic;html=1;rounded=1;strokeWidth=2;strokeColor=#009900;edgeStyle=orthogonalEdgeStyle;entryX=0.404;entryY=0.992;entryDx=0;entryDy=0;entryPerimeter=0;" parent="1" edge="1">
          <mxGeometry width="50" height="50" relative="1" as="geometry">
            <mxPoint x="2424" y="1326" as="sourcePoint" />
            <mxPoint x="-646.8600000000001" y="1096.536" as="targetPoint" />
            <Array as="points">
              <mxPoint x="2720" y="1326" />
              <mxPoint x="2720" y="1940" />
              <mxPoint x="-647" y="1940" />
            </Array>
          </mxGeometry>
        </mxCell>
        <mxCell id="_SDMGPXZtipDCqufldMR-177" value="WB Address" style="edgeLabel;html=1;align=center;verticalAlign=middle;resizable=0;points=[];fontSize=13;" parent="_SDMGPXZtipDCqufldMR-173" vertex="1" connectable="0">
          <mxGeometry x="-0.8948" y="-2" relative="1" as="geometry">
            <mxPoint x="36" y="82" as="offset" />
          </mxGeometry>
        </mxCell>
        <mxCell id="_SDMGPXZtipDCqufldMR-178" value="WB Address" style="edgeLabel;html=1;align=center;verticalAlign=middle;resizable=0;points=[];fontSize=13;" parent="_SDMGPXZtipDCqufldMR-173" vertex="1" connectable="0">
          <mxGeometry x="0.9696" y="1" relative="1" as="geometry">
            <mxPoint y="15" as="offset" />
          </mxGeometry>
        </mxCell>
        <mxCell id="_SDMGPXZtipDCqufldMR-182" value="WB ADDRESS" style="edgeLabel;html=1;align=center;verticalAlign=middle;resizable=0;points=[];fontSize=13;" parent="_SDMGPXZtipDCqufldMR-173" vertex="1" connectable="0">
          <mxGeometry x="-0.0538" y="5" relative="1" as="geometry">
            <mxPoint x="-1" y="-4" as="offset" />
          </mxGeometry>
        </mxCell>
        <mxCell id="te43sHLQZ3bOe-cXKWkI-5" style="edgeStyle=orthogonalEdgeStyle;rounded=0;orthogonalLoop=1;jettySize=auto;html=1;exitX=1;exitY=0.5;exitDx=0;exitDy=0;exitPerimeter=0;entryX=0.5;entryY=0.083;entryDx=0;entryDy=0;entryPerimeter=0;strokeWidth=2;fillColor=#e51400;strokeColor=#B20000;" parent="1" source="te43sHLQZ3bOe-cXKWkI-3" edge="1">
          <mxGeometry relative="1" as="geometry">
            <mxPoint x="-1380" y="1120.04" as="targetPoint" />
          </mxGeometry>
        </mxCell>
        <mxCell id="te43sHLQZ3bOe-cXKWkI-6" value="Call/Branching" style="edgeLabel;html=1;align=center;verticalAlign=middle;resizable=0;points=[];" parent="te43sHLQZ3bOe-cXKWkI-5" vertex="1" connectable="0">
          <mxGeometry x="-0.272" relative="1" as="geometry">
            <mxPoint as="offset" />
          </mxGeometry>
        </mxCell>
        <mxCell id="te43sHLQZ3bOe-cXKWkI-3" value="" style="shape=xor;whiteSpace=wrap;html=1;rotation=-90;" parent="1" vertex="1">
          <mxGeometry x="-1410" y="1230" width="60" height="80" as="geometry" />
        </mxCell>
        <mxCell id="te43sHLQZ3bOe-cXKWkI-9" value="" style="endArrow=classic;html=1;rounded=1;startArrow=oval;startFill=1;edgeStyle=orthogonalEdgeStyle;entryX=0.25;entryY=0;entryDx=0;entryDy=0;strokeWidth=3;" parent="1" edge="1">
          <mxGeometry width="50" height="50" relative="1" as="geometry">
            <mxPoint x="2208" y="840" as="sourcePoint" />
            <mxPoint x="-1457" y="1100" as="targetPoint" />
            <Array as="points">
              <mxPoint x="2208" y="270" />
              <mxPoint x="-1792" y="270" />
              <mxPoint x="-1792" y="1100" />
            </Array>
          </mxGeometry>
        </mxCell>
        <mxCell id="te43sHLQZ3bOe-cXKWkI-10" value="MEMORY RETURNED PC" style="edgeLabel;html=1;align=center;verticalAlign=middle;resizable=0;points=[];fontSize=13;" parent="te43sHLQZ3bOe-cXKWkI-9" vertex="1" connectable="0">
          <mxGeometry x="0.9252" y="-1" relative="1" as="geometry">
            <mxPoint as="offset" />
          </mxGeometry>
        </mxCell>
        <mxCell id="te43sHLQZ3bOe-cXKWkI-14" style="edgeStyle=orthogonalEdgeStyle;rounded=1;orthogonalLoop=1;jettySize=auto;html=1;exitX=0.25;exitY=1;exitDx=0;exitDy=0;endArrow=oval;endFill=1;startArrow=block;startFill=1;fillColor=#e51400;strokeColor=#B20000;strokeWidth=2;" parent="1" edge="1">
          <mxGeometry relative="1" as="geometry">
            <mxPoint x="1790" y="622.3333333333334" as="targetPoint" />
            <mxPoint x="-1432.5" y="1129" as="sourcePoint" />
            <Array as="points">
              <mxPoint x="-1432" y="1240" />
              <mxPoint x="-2060" y="1240" />
              <mxPoint x="-2060" y="140" />
              <mxPoint x="1790" y="140" />
            </Array>
          </mxGeometry>
        </mxCell>
        <mxCell id="te43sHLQZ3bOe-cXKWkI-15" value="PROPAGATED RET/RTI" style="edgeLabel;html=1;align=center;verticalAlign=middle;resizable=0;points=[];fontSize=13;" parent="te43sHLQZ3bOe-cXKWkI-14" vertex="1" connectable="0">
          <mxGeometry x="0.9487" y="-2" relative="1" as="geometry">
            <mxPoint y="-1" as="offset" />
          </mxGeometry>
        </mxCell>
        <mxCell id="te43sHLQZ3bOe-cXKWkI-16" value="PROPAGATED RET/RTI" style="edgeLabel;html=1;align=center;verticalAlign=middle;resizable=0;points=[];fontSize=13;" parent="te43sHLQZ3bOe-cXKWkI-14" vertex="1" connectable="0">
          <mxGeometry x="-0.8896" relative="1" as="geometry">
            <mxPoint x="-89" as="offset" />
          </mxGeometry>
        </mxCell>
        <mxCell id="te43sHLQZ3bOe-cXKWkI-19" style="edgeStyle=orthogonalEdgeStyle;rounded=0;orthogonalLoop=1;jettySize=auto;html=1;exitX=1;exitY=0.5;exitDx=0;exitDy=0;entryX=0;entryY=0.25;entryDx=0;entryDy=0;entryPerimeter=0;startArrow=oval;startFill=1;strokeWidth=2;fillColor=#e51400;strokeColor=#B20000;" parent="1" source="te43sHLQZ3bOe-cXKWkI-17" target="te43sHLQZ3bOe-cXKWkI-18" edge="1">
          <mxGeometry relative="1" as="geometry" />
        </mxCell>
        <mxCell id="te43sHLQZ3bOe-cXKWkI-20" style="edgeStyle=orthogonalEdgeStyle;rounded=0;orthogonalLoop=1;jettySize=auto;html=1;endArrow=oval;endFill=1;startArrow=none;startFill=0;fillColor=#e51400;strokeColor=#B20000;strokeWidth=2;exitX=0;exitY=0.5;exitDx=0;exitDy=0;" parent="1" source="te43sHLQZ3bOe-cXKWkI-17" edge="1">
          <mxGeometry relative="1" as="geometry">
            <mxPoint x="-1380" y="1170" as="targetPoint" />
            <mxPoint x="-1290" y="1320" as="sourcePoint" />
            <Array as="points">
              <mxPoint x="-1300" y="1653" />
              <mxPoint x="-1300" y="1170" />
            </Array>
          </mxGeometry>
        </mxCell>
        <mxCell id="te43sHLQZ3bOe-cXKWkI-30" value="CALL/ BRANCHING" style="edgeLabel;html=1;align=center;verticalAlign=middle;resizable=0;points=[];" parent="te43sHLQZ3bOe-cXKWkI-20" vertex="1" connectable="0">
          <mxGeometry x="0.0891" relative="1" as="geometry">
            <mxPoint y="173" as="offset" />
          </mxGeometry>
        </mxCell>
        <mxCell id="te43sHLQZ3bOe-cXKWkI-17" value="" style="triangle;whiteSpace=wrap;html=1;" parent="1" vertex="1">
          <mxGeometry x="-1255" y="1619" width="70" height="68" as="geometry" />
        </mxCell>
        <mxCell id="te43sHLQZ3bOe-cXKWkI-28" style="edgeStyle=orthogonalEdgeStyle;rounded=1;orthogonalLoop=1;jettySize=auto;html=1;exitX=1;exitY=0.5;exitDx=0;exitDy=0;exitPerimeter=0;entryX=0.5;entryY=1;entryDx=0;entryDy=0;strokeWidth=2;fillColor=#e51400;strokeColor=#B20000;" parent="1" source="te43sHLQZ3bOe-cXKWkI-18" target="C16ASnKl_FtYkdsgSsSQ-6" edge="1">
          <mxGeometry relative="1" as="geometry">
            <mxPoint x="-1037" y="1580" as="targetPoint" />
          </mxGeometry>
        </mxCell>
        <mxCell id="te43sHLQZ3bOe-cXKWkI-31" value="FREEZE" style="edgeLabel;html=1;align=center;verticalAlign=middle;resizable=0;points=[];fontSize=13;" parent="te43sHLQZ3bOe-cXKWkI-28" vertex="1" connectable="0">
          <mxGeometry x="0.4693" y="3" relative="1" as="geometry">
            <mxPoint y="-1" as="offset" />
          </mxGeometry>
        </mxCell>
        <mxCell id="te43sHLQZ3bOe-cXKWkI-18" value="" style="shape=or;whiteSpace=wrap;html=1;" parent="1" vertex="1">
          <mxGeometry x="-1130" y="1632" width="60" height="80" as="geometry" />
        </mxCell>
        <mxCell id="te43sHLQZ3bOe-cXKWkI-23" style="edgeStyle=orthogonalEdgeStyle;rounded=1;orthogonalLoop=1;jettySize=auto;html=1;exitX=1;exitY=0.5;exitDx=0;exitDy=0;exitPerimeter=0;entryX=0;entryY=0.75;entryDx=0;entryDy=0;entryPerimeter=0;strokeWidth=2;fillColor=#e51400;strokeColor=#B20000;" parent="1" source="te43sHLQZ3bOe-cXKWkI-21" target="te43sHLQZ3bOe-cXKWkI-18" edge="1">
          <mxGeometry relative="1" as="geometry">
            <mxPoint x="-1200" y="1692" as="targetPoint" />
            <Array as="points">
              <mxPoint x="-1169" y="1742" />
              <mxPoint x="-1169" y="1692" />
            </Array>
          </mxGeometry>
        </mxCell>
        <mxCell id="te43sHLQZ3bOe-cXKWkI-24" style="edgeStyle=orthogonalEdgeStyle;rounded=0;orthogonalLoop=1;jettySize=auto;html=1;exitX=0;exitY=0.25;exitDx=0;exitDy=0;exitPerimeter=0;endArrow=oval;endFill=1;startArrow=none;startFill=0;fillColor=#e51400;strokeColor=#B20000;strokeWidth=2;" parent="1" source="te43sHLQZ3bOe-cXKWkI-21" edge="1">
          <mxGeometry relative="1" as="geometry">
            <mxPoint x="-1620.0000000000002" y="1240" as="targetPoint" />
          </mxGeometry>
        </mxCell>
        <mxCell id="te43sHLQZ3bOe-cXKWkI-25" value="Prop Ret/Rti" style="edgeLabel;html=1;align=center;verticalAlign=middle;resizable=0;points=[];fontSize=13;" parent="te43sHLQZ3bOe-cXKWkI-24" vertex="1" connectable="0">
          <mxGeometry x="-0.6665" y="1" relative="1" as="geometry">
            <mxPoint as="offset" />
          </mxGeometry>
        </mxCell>
        <mxCell id="te43sHLQZ3bOe-cXKWkI-21" value="" style="verticalLabelPosition=bottom;shadow=0;dashed=0;align=center;html=1;verticalAlign=top;shape=mxgraph.electrical.logic_gates.logic_gate;operation=xor;" parent="1" vertex="1">
          <mxGeometry x="-1289" y="1712" width="100" height="60" as="geometry" />
        </mxCell>
        <mxCell id="te43sHLQZ3bOe-cXKWkI-32" value="" style="endArrow=classic;html=1;rounded=0;entryX=-0.039;entryY=0.84;entryDx=0;entryDy=0;entryPerimeter=0;fillColor=#e51400;strokeColor=#B20000;strokeWidth=2;" parent="1" target="C16ASnKl_FtYkdsgSsSQ-6" edge="1">
          <mxGeometry width="50" height="50" relative="1" as="geometry">
            <mxPoint x="-1380" y="1170" as="sourcePoint" />
            <mxPoint x="-1050" y="1200" as="targetPoint" />
          </mxGeometry>
        </mxCell>
        <mxCell id="te43sHLQZ3bOe-cXKWkI-33" value="FLUSH" style="edgeLabel;html=1;align=center;verticalAlign=middle;resizable=0;points=[];" parent="te43sHLQZ3bOe-cXKWkI-32" vertex="1" connectable="0">
          <mxGeometry x="0.2751" y="-5" relative="1" as="geometry">
            <mxPoint x="-1" y="-4" as="offset" />
          </mxGeometry>
        </mxCell>
        <mxCell id="te43sHLQZ3bOe-cXKWkI-34" value="" style="endArrow=classic;html=1;rounded=1;strokeWidth=2;fillColor=#e51400;strokeColor=#B20000;startArrow=oval;startFill=1;entryX=0.486;entryY=1.002;entryDx=0;entryDy=0;entryPerimeter=0;edgeStyle=orthogonalEdgeStyle;" parent="1" target="FRVEOWgXkrjnCXTNfwsk-19" edge="1">
          <mxGeometry width="50" height="50" relative="1" as="geometry">
            <mxPoint x="-1300" y="1430" as="sourcePoint" />
            <mxPoint x="-285.7894736842105" y="1430" as="targetPoint" />
            <Array as="points">
              <mxPoint x="-286" y="1430" />
            </Array>
          </mxGeometry>
        </mxCell>
        <mxCell id="te43sHLQZ3bOe-cXKWkI-35" value="FLUSH" style="edgeLabel;html=1;align=center;verticalAlign=middle;resizable=0;points=[];fontSize=13;" parent="te43sHLQZ3bOe-cXKWkI-34" vertex="1" connectable="0">
          <mxGeometry x="0.6593" y="-3" relative="1" as="geometry">
            <mxPoint x="-5" y="-3" as="offset" />
          </mxGeometry>
        </mxCell>
        <mxCell id="te43sHLQZ3bOe-cXKWkI-51" style="edgeStyle=orthogonalEdgeStyle;rounded=0;orthogonalLoop=1;jettySize=auto;html=1;exitX=0.5;exitY=0;exitDx=0;exitDy=0;fillColor=#e51400;strokeColor=#B20000;strokeWidth=2;" parent="1" edge="1">
          <mxGeometry relative="1" as="geometry">
            <mxPoint x="250" y="50" as="targetPoint" />
            <mxPoint x="250" y="388" as="sourcePoint" />
            <Array as="points">
              <mxPoint x="250" y="80" />
              <mxPoint x="250" y="80" />
            </Array>
          </mxGeometry>
        </mxCell>
        <mxCell id="te43sHLQZ3bOe-cXKWkI-52" value="HAZARD SIGNAL" style="edgeLabel;html=1;align=center;verticalAlign=middle;resizable=0;points=[];fontSize=13;" parent="te43sHLQZ3bOe-cXKWkI-51" vertex="1" connectable="0">
          <mxGeometry x="0.414" y="5" relative="1" as="geometry">
            <mxPoint x="5" y="62" as="offset" />
          </mxGeometry>
        </mxCell>
        <mxCell id="te43sHLQZ3bOe-cXKWkI-41" value="HDU" style="rounded=0;whiteSpace=wrap;html=1;strokeWidth=2;fontSize=21;" parent="1" vertex="1">
          <mxGeometry x="190" y="390" width="120" height="60" as="geometry" />
        </mxCell>
        <mxCell id="te43sHLQZ3bOe-cXKWkI-44" value="" style="endArrow=classic;html=1;rounded=0;fillColor=#e51400;strokeColor=#B20000;strokeWidth=2;startArrow=oval;startFill=1;entryX=0.5;entryY=1;entryDx=0;entryDy=0;" parent="1" target="te43sHLQZ3bOe-cXKWkI-41" edge="1">
          <mxGeometry relative="1" as="geometry">
            <mxPoint x="250" y="620" as="sourcePoint" />
            <mxPoint x="300" y="520" as="targetPoint" />
          </mxGeometry>
        </mxCell>
        <mxCell id="te43sHLQZ3bOe-cXKWkI-45" value="EX MEM OP" style="edgeLabel;resizable=0;html=1;align=center;verticalAlign=middle;fontSize=13;" parent="te43sHLQZ3bOe-cXKWkI-44" connectable="0" vertex="1">
          <mxGeometry relative="1" as="geometry">
            <mxPoint y="-7" as="offset" />
          </mxGeometry>
        </mxCell>
        <mxCell id="te43sHLQZ3bOe-cXKWkI-46" value="" style="endArrow=classic;html=1;rounded=1;fillColor=#e51400;strokeColor=#B20000;strokeWidth=2;startArrow=oval;startFill=1;entryX=1;entryY=0.5;entryDx=0;entryDy=0;edgeStyle=elbowEdgeStyle;" parent="1" target="te43sHLQZ3bOe-cXKWkI-41" edge="1">
          <mxGeometry relative="1" as="geometry">
            <mxPoint x="1000" y="623" as="sourcePoint" />
            <mxPoint x="1000" y="453" as="targetPoint" />
            <Array as="points">
              <mxPoint x="1000" y="480" />
            </Array>
          </mxGeometry>
        </mxCell>
        <mxCell id="te43sHLQZ3bOe-cXKWkI-47" value="MEM1 MEM OP" style="edgeLabel;resizable=0;html=1;align=center;verticalAlign=middle;fontSize=13;" parent="te43sHLQZ3bOe-cXKWkI-46" connectable="0" vertex="1">
          <mxGeometry relative="1" as="geometry">
            <mxPoint x="-166" as="offset" />
          </mxGeometry>
        </mxCell>
        <mxCell id="te43sHLQZ3bOe-cXKWkI-50" value="" style="endArrow=none;html=1;rounded=0;endFill=0;fillColor=#e51400;strokeColor=#B20000;strokeWidth=8;" parent="1" edge="1">
          <mxGeometry width="50" height="50" relative="1" as="geometry">
            <mxPoint x="-1610" y="50" as="sourcePoint" />
            <mxPoint x="1680" y="50" as="targetPoint" />
          </mxGeometry>
        </mxCell>
        <mxCell id="te43sHLQZ3bOe-cXKWkI-53" value="" style="endArrow=classic;html=1;rounded=1;fillColor=#e51400;strokeColor=#B20000;strokeWidth=2;startArrow=oval;startFill=1;entryX=0.5;entryY=1;entryDx=0;entryDy=0;edgeStyle=orthogonalEdgeStyle;" parent="1" target="C16ASnKl_FtYkdsgSsSQ-3" edge="1">
          <mxGeometry width="50" height="50" relative="1" as="geometry">
            <mxPoint x="-1340" y="49" as="sourcePoint" />
            <mxPoint x="-1340" y="879.5" as="targetPoint" />
            <Array as="points">
              <mxPoint x="-1340" y="49" />
              <mxPoint x="-1340" y="1140" />
              <mxPoint x="-1297" y="1140" />
            </Array>
          </mxGeometry>
        </mxCell>
        <mxCell id="te43sHLQZ3bOe-cXKWkI-57" value="HAZARD SIGNAL" style="edgeLabel;html=1;align=center;verticalAlign=middle;resizable=0;points=[];fontSize=13;" parent="te43sHLQZ3bOe-cXKWkI-53" vertex="1" connectable="0">
          <mxGeometry x="-0.7232" y="-8" relative="1" as="geometry">
            <mxPoint y="-1" as="offset" />
          </mxGeometry>
        </mxCell>
        <mxCell id="te43sHLQZ3bOe-cXKWkI-54" value="" style="endArrow=classic;html=1;rounded=0;entryX=0.5;entryY=0;entryDx=0;entryDy=0;fillColor=#e51400;strokeColor=#B20000;strokeWidth=2;startArrow=oval;startFill=1;" parent="1" edge="1">
          <mxGeometry width="50" height="50" relative="1" as="geometry">
            <mxPoint x="-1039" y="51" as="sourcePoint" />
            <mxPoint x="-1040" y="699" as="targetPoint" />
          </mxGeometry>
        </mxCell>
        <mxCell id="te43sHLQZ3bOe-cXKWkI-58" value="HAZARD SIGNAL" style="edgeLabel;html=1;align=center;verticalAlign=middle;resizable=0;points=[];fontSize=13;" parent="te43sHLQZ3bOe-cXKWkI-54" vertex="1" connectable="0">
          <mxGeometry x="-0.5009" y="2" relative="1" as="geometry">
            <mxPoint y="-6" as="offset" />
          </mxGeometry>
        </mxCell>
        <mxCell id="te43sHLQZ3bOe-cXKWkI-55" value="" style="endArrow=classic;html=1;rounded=0;fillColor=#e51400;strokeColor=#B20000;strokeWidth=2;startArrow=oval;startFill=1;entryX=0.5;entryY=0;entryDx=0;entryDy=0;" parent="1" target="FRVEOWgXkrjnCXTNfwsk-11" edge="1">
          <mxGeometry width="50" height="50" relative="1" as="geometry">
            <mxPoint x="-284.83" y="47" as="sourcePoint" />
            <mxPoint x="-285" y="490" as="targetPoint" />
          </mxGeometry>
        </mxCell>
        <mxCell id="te43sHLQZ3bOe-cXKWkI-59" value="HAZARD SIGNAL" style="edgeLabel;html=1;align=center;verticalAlign=middle;resizable=0;points=[];fontSize=13;" parent="te43sHLQZ3bOe-cXKWkI-55" vertex="1" connectable="0">
          <mxGeometry x="-0.3186" y="3" relative="1" as="geometry">
            <mxPoint as="offset" />
          </mxGeometry>
        </mxCell>
        <mxCell id="te43sHLQZ3bOe-cXKWkI-56" value="" style="endArrow=classic;html=1;rounded=0;fillColor=#e51400;strokeColor=#B20000;strokeWidth=2;startArrow=oval;startFill=1;entryX=0.426;entryY=-0.002;entryDx=0;entryDy=0;entryPerimeter=0;" parent="1" target="oJpyM_X3onIZimsuUFzw-46" edge="1">
          <mxGeometry width="50" height="50" relative="1" as="geometry">
            <mxPoint x="760" y="50" as="sourcePoint" />
            <mxPoint x="764.5499999999998" y="495" as="targetPoint" />
          </mxGeometry>
        </mxCell>
        <mxCell id="te43sHLQZ3bOe-cXKWkI-60" value="HAZARD SIGNAL" style="edgeLabel;html=1;align=center;verticalAlign=middle;resizable=0;points=[];fontSize=13;" parent="te43sHLQZ3bOe-cXKWkI-56" vertex="1" connectable="0">
          <mxGeometry x="-0.2954" y="2" relative="1" as="geometry">
            <mxPoint as="offset" />
          </mxGeometry>
        </mxCell>
        <mxCell id="eEPcVRElHBAGuMocAx3j-27" style="edgeStyle=orthogonalEdgeStyle;rounded=0;orthogonalLoop=1;jettySize=auto;html=1;exitX=0.5;exitY=1;exitDx=0;exitDy=0;entryX=0;entryY=0.5;entryDx=0;entryDy=0;entryPerimeter=0;" edge="1" parent="1" source="eEPcVRElHBAGuMocAx3j-1" target="eEPcVRElHBAGuMocAx3j-28">
          <mxGeometry relative="1" as="geometry">
            <mxPoint x="1350" y="1484" as="targetPoint" />
          </mxGeometry>
        </mxCell>
        <mxCell id="eEPcVRElHBAGuMocAx3j-1" style="html=1;overflow=block;blockSpacing=1;whiteSpace=wrap;shape=trapezoid;perimeter=trapezoidPerimeter;anchorPointDirection=0;flipV=1;fontSize=16.7;fontColor=#3a414a;spacing=3.8;strokeColor=#3a414a;strokeOpacity=100;rounded=1;absoluteArcSize=1;arcSize=9;rotation=-90;strokeWidth=2;lucidId=-flLs.cZDFG2;" vertex="1" parent="1">
          <mxGeometry x="1110" y="1427" width="175" height="115" as="geometry" />
        </mxCell>
        <mxCell id="eEPcVRElHBAGuMocAx3j-2" value="MUX" style="html=1;overflow=block;blockSpacing=1;whiteSpace=wrap;shape=trapezoid;perimeter=trapezoidPerimeter;anchorPointDirection=0;flipV=1;fontSize=16.7;fontColor=#3a414a;spacing=3.8;strokeOpacity=100;rounded=1;absoluteArcSize=1;arcSize=9;strokeWidth=1.5;lucidId=-flLs.cZDFG2;fillColor=none;strokeColor=none;rotation=-360;align=right;" vertex="1" parent="eEPcVRElHBAGuMocAx3j-1">
          <mxGeometry x="0.125" y="-0.16666666666666666" width="90" height="120" relative="1" as="geometry" />
        </mxCell>
        <mxCell id="eEPcVRElHBAGuMocAx3j-15" value="001" style="text;html=1;align=center;verticalAlign=middle;resizable=0;points=[];autosize=1;strokeColor=none;fillColor=none;" vertex="1" parent="eEPcVRElHBAGuMocAx3j-1">
          <mxGeometry x="40" y="-10" width="40" height="30" as="geometry" />
        </mxCell>
        <mxCell id="eEPcVRElHBAGuMocAx3j-16" value="010" style="text;html=1;align=center;verticalAlign=middle;resizable=0;points=[];autosize=1;strokeColor=none;fillColor=none;" vertex="1" parent="eEPcVRElHBAGuMocAx3j-1">
          <mxGeometry x="40" y="30" width="40" height="30" as="geometry" />
        </mxCell>
        <mxCell id="eEPcVRElHBAGuMocAx3j-19" value="101" style="text;html=1;align=center;verticalAlign=middle;resizable=0;points=[];autosize=1;strokeColor=none;fillColor=none;" vertex="1" parent="eEPcVRElHBAGuMocAx3j-1">
          <mxGeometry x="40" y="60" width="40" height="30" as="geometry" />
        </mxCell>
        <mxCell id="eEPcVRElHBAGuMocAx3j-5" value="" style="endArrow=classic;html=1;rounded=1;fillColor=#e51400;strokeColor=#B20000;strokeWidth=2;edgeStyle=orthogonalEdgeStyle;startArrow=oval;startFill=1;" edge="1" parent="1" target="eEPcVRElHBAGuMocAx3j-1">
          <mxGeometry width="50" height="50" relative="1" as="geometry">
            <mxPoint x="1080" y="990" as="sourcePoint" />
            <mxPoint x="1200" y="1367" as="targetPoint" />
            <Array as="points">
              <mxPoint x="1080" y="990" />
              <mxPoint x="1200" y="990" />
            </Array>
          </mxGeometry>
        </mxCell>
        <mxCell id="eEPcVRElHBAGuMocAx3j-6" value="Read Address Selector&amp;nbsp;" style="edgeLabel;html=1;align=center;verticalAlign=middle;resizable=0;points=[];" vertex="1" connectable="0" parent="eEPcVRElHBAGuMocAx3j-5">
          <mxGeometry x="0.7485" y="1" relative="1" as="geometry">
            <mxPoint x="-2" y="-26" as="offset" />
          </mxGeometry>
        </mxCell>
        <mxCell id="eEPcVRElHBAGuMocAx3j-7" value="" style="endArrow=classic;html=1;rounded=1;fillColor=#e51400;strokeColor=#B20000;strokeWidth=2;edgeStyle=orthogonalEdgeStyle;startArrow=oval;startFill=1;entryX=0.847;entryY=0.226;entryDx=0;entryDy=0;entryPerimeter=0;" edge="1" parent="1" target="eEPcVRElHBAGuMocAx3j-1">
          <mxGeometry width="50" height="50" relative="1" as="geometry">
            <mxPoint x="1360" y="896.95" as="sourcePoint" />
            <mxPoint x="1410" y="1286.95" as="targetPoint" />
            <Array as="points">
              <mxPoint x="1230" y="897" />
              <mxPoint x="1230" y="1415" />
              <mxPoint x="1229" y="1415" />
            </Array>
          </mxGeometry>
        </mxCell>
        <mxCell id="eEPcVRElHBAGuMocAx3j-8" value="Write Address Selector&amp;nbsp;" style="edgeLabel;html=1;align=center;verticalAlign=middle;resizable=0;points=[];" vertex="1" connectable="0" parent="eEPcVRElHBAGuMocAx3j-7">
          <mxGeometry x="0.7485" y="1" relative="1" as="geometry">
            <mxPoint y="26" as="offset" />
          </mxGeometry>
        </mxCell>
        <mxCell id="eEPcVRElHBAGuMocAx3j-11" value="" style="endArrow=classic;html=1;rounded=1;entryX=1;entryY=0.25;entryDx=0;entryDy=0;startArrow=oval;startFill=1;fillColor=#e51400;strokeColor=#B20000;strokeWidth=2;edgeStyle=orthogonalEdgeStyle;" edge="1" parent="1">
          <mxGeometry width="50" height="50" relative="1" as="geometry">
            <mxPoint x="810" y="622" as="sourcePoint" />
            <mxPoint x="1171.9444444444443" y="1408.7222222222222" as="targetPoint" />
            <Array as="points">
              <mxPoint x="810" y="1370" />
              <mxPoint x="1172" y="1370" />
            </Array>
          </mxGeometry>
        </mxCell>
        <mxCell id="eEPcVRElHBAGuMocAx3j-12" value="Data Bus Selector" style="edgeLabel;html=1;align=center;verticalAlign=middle;resizable=0;points=[];fontSize=13;" vertex="1" connectable="0" parent="eEPcVRElHBAGuMocAx3j-11">
          <mxGeometry x="-0.1965" y="-1" relative="1" as="geometry">
            <mxPoint x="181" y="265" as="offset" />
          </mxGeometry>
        </mxCell>
        <mxCell id="eEPcVRElHBAGuMocAx3j-13" value="" style="endArrow=classic;html=1;rounded=0;entryX=0.024;entryY=0.9;entryDx=0;entryDy=0;entryPerimeter=0;" edge="1" parent="1">
          <mxGeometry width="50" height="50" relative="1" as="geometry">
            <mxPoint x="1000" y="1437" as="sourcePoint" />
            <mxPoint x="1137.9933333333333" y="1437.1249999999998" as="targetPoint" />
          </mxGeometry>
        </mxCell>
        <mxCell id="eEPcVRElHBAGuMocAx3j-14" value="-1" style="text;html=1;align=center;verticalAlign=middle;resizable=0;points=[];autosize=1;strokeColor=none;fillColor=none;strokeWidth=4;fontSize=16;" vertex="1" parent="1">
          <mxGeometry x="950" y="1422" width="40" height="30" as="geometry" />
        </mxCell>
        <mxCell id="eEPcVRElHBAGuMocAx3j-17" value="" style="endArrow=classic;html=1;rounded=0;entryX=0.024;entryY=0.9;entryDx=0;entryDy=0;entryPerimeter=0;" edge="1" parent="1">
          <mxGeometry width="50" height="50" relative="1" as="geometry">
            <mxPoint x="1002" y="1472" as="sourcePoint" />
            <mxPoint x="1140" y="1472" as="targetPoint" />
          </mxGeometry>
        </mxCell>
        <mxCell id="eEPcVRElHBAGuMocAx3j-18" value="1" style="text;html=1;align=center;verticalAlign=middle;resizable=0;points=[];autosize=1;strokeColor=none;fillColor=none;strokeWidth=4;fontSize=16;" vertex="1" parent="1">
          <mxGeometry x="957" y="1457" width="30" height="30" as="geometry" />
        </mxCell>
        <mxCell id="eEPcVRElHBAGuMocAx3j-20" value="" style="endArrow=classic;html=1;rounded=0;entryX=0.024;entryY=0.9;entryDx=0;entryDy=0;entryPerimeter=0;" edge="1" parent="1">
          <mxGeometry width="50" height="50" relative="1" as="geometry">
            <mxPoint x="1000" y="1502" as="sourcePoint" />
            <mxPoint x="1138" y="1502" as="targetPoint" />
          </mxGeometry>
        </mxCell>
        <mxCell id="eEPcVRElHBAGuMocAx3j-21" value="-2" style="text;html=1;align=center;verticalAlign=middle;resizable=0;points=[];autosize=1;strokeColor=none;fillColor=none;strokeWidth=4;fontSize=16;" vertex="1" parent="1">
          <mxGeometry x="950" y="1487" width="40" height="30" as="geometry" />
        </mxCell>
        <mxCell id="eEPcVRElHBAGuMocAx3j-24" value="110" style="text;html=1;align=center;verticalAlign=middle;resizable=0;points=[];autosize=1;strokeColor=none;fillColor=none;" vertex="1" parent="1">
          <mxGeometry x="1150" y="1527" width="40" height="30" as="geometry" />
        </mxCell>
        <mxCell id="eEPcVRElHBAGuMocAx3j-25" value="" style="endArrow=classic;html=1;rounded=0;entryX=0.024;entryY=0.9;entryDx=0;entryDy=0;entryPerimeter=0;" edge="1" parent="1">
          <mxGeometry width="50" height="50" relative="1" as="geometry">
            <mxPoint x="1000" y="1542" as="sourcePoint" />
            <mxPoint x="1138" y="1542" as="targetPoint" />
          </mxGeometry>
        </mxCell>
        <mxCell id="eEPcVRElHBAGuMocAx3j-26" value="2" style="text;html=1;align=center;verticalAlign=middle;resizable=0;points=[];autosize=1;strokeColor=none;fillColor=none;strokeWidth=4;fontSize=16;" vertex="1" parent="1">
          <mxGeometry x="955" y="1527" width="30" height="30" as="geometry" />
        </mxCell>
        <mxCell id="eEPcVRElHBAGuMocAx3j-32" style="edgeStyle=orthogonalEdgeStyle;rounded=1;orthogonalLoop=1;jettySize=auto;html=1;exitX=0.5;exitY=1;exitDx=0;exitDy=0;exitPerimeter=0;entryX=0.5;entryY=1;entryDx=0;entryDy=0;entryPerimeter=0;strokeWidth=2;strokeColor=#009900;" edge="1" parent="1" source="eEPcVRElHBAGuMocAx3j-28" target="oJpyM_X3onIZimsuUFzw-70">
          <mxGeometry relative="1" as="geometry">
            <Array as="points">
              <mxPoint x="1400" y="1580" />
              <mxPoint x="851" y="1580" />
            </Array>
          </mxGeometry>
        </mxCell>
        <mxCell id="eEPcVRElHBAGuMocAx3j-33" value="NEW SP" style="edgeLabel;html=1;align=center;verticalAlign=middle;resizable=0;points=[];fontSize=13;" vertex="1" connectable="0" parent="eEPcVRElHBAGuMocAx3j-32">
          <mxGeometry x="-0.2394" y="-1" relative="1" as="geometry">
            <mxPoint as="offset" />
          </mxGeometry>
        </mxCell>
        <mxCell id="eEPcVRElHBAGuMocAx3j-34" value="NEW SP" style="edgeLabel;html=1;align=center;verticalAlign=middle;resizable=0;points=[];" vertex="1" connectable="0" parent="eEPcVRElHBAGuMocAx3j-32">
          <mxGeometry x="0.9419" y="-3" relative="1" as="geometry">
            <mxPoint as="offset" />
          </mxGeometry>
        </mxCell>
        <mxCell id="eEPcVRElHBAGuMocAx3j-28" value="" style="html=1;overflow=block;blockSpacing=1;whiteSpace=wrap;shape=mxgraph.flowchart.summing_function;fontSize=13;spacing=3.8;strokeColor=#3a414a;strokeOpacity=100;rounded=1;absoluteArcSize=1;arcSize=9;strokeWidth=2;lucidId=0slLmjls9X9R;" vertex="1" parent="1">
          <mxGeometry x="1370" y="1454.5" width="60" height="60" as="geometry" />
        </mxCell>
        <mxCell id="eEPcVRElHBAGuMocAx3j-30" value="" style="endArrow=classic;html=1;rounded=1;entryX=0.5;entryY=0;entryDx=0;entryDy=0;entryPerimeter=0;edgeStyle=orthogonalEdgeStyle;startArrow=oval;startFill=1;strokeColor=#009900;strokeWidth=2;" edge="1" parent="1" target="eEPcVRElHBAGuMocAx3j-28">
          <mxGeometry width="50" height="50" relative="1" as="geometry">
            <mxPoint x="1270" y="1020" as="sourcePoint" />
            <mxPoint x="1340" y="1177" as="targetPoint" />
            <Array as="points">
              <mxPoint x="1270" y="1137" />
              <mxPoint x="1400" y="1137" />
            </Array>
          </mxGeometry>
        </mxCell>
        <mxCell id="eEPcVRElHBAGuMocAx3j-31" value="SP" style="edgeLabel;html=1;align=center;verticalAlign=middle;resizable=0;points=[];fontSize=14;" vertex="1" connectable="0" parent="eEPcVRElHBAGuMocAx3j-30">
          <mxGeometry x="0.7316" y="1" relative="1" as="geometry">
            <mxPoint y="-1" as="offset" />
          </mxGeometry>
        </mxCell>
        <mxCell id="eEPcVRElHBAGuMocAx3j-40" style="edgeStyle=orthogonalEdgeStyle;rounded=1;orthogonalLoop=1;jettySize=auto;html=1;exitX=1;exitY=0.5;exitDx=0;exitDy=0;exitPerimeter=0;entryX=0.817;entryY=-0.024;entryDx=0;entryDy=0;entryPerimeter=0;fillColor=#e51400;strokeColor=#B20000;strokeWidth=2;" edge="1" parent="1" source="eEPcVRElHBAGuMocAx3j-35" target="oJpyM_X3onIZimsuUFzw-70">
          <mxGeometry relative="1" as="geometry">
            <Array as="points">
              <mxPoint x="1120" y="430" />
              <mxPoint x="1120" y="470" />
              <mxPoint x="870" y="470" />
            </Array>
          </mxGeometry>
        </mxCell>
        <mxCell id="eEPcVRElHBAGuMocAx3j-41" value="SP WE" style="edgeLabel;html=1;align=center;verticalAlign=middle;resizable=0;points=[];fontSize=13;" vertex="1" connectable="0" parent="eEPcVRElHBAGuMocAx3j-40">
          <mxGeometry x="0.7061" y="-1" relative="1" as="geometry">
            <mxPoint as="offset" />
          </mxGeometry>
        </mxCell>
        <mxCell id="eEPcVRElHBAGuMocAx3j-42" value="SP WE" style="edgeLabel;html=1;align=center;verticalAlign=middle;resizable=0;points=[];" vertex="1" connectable="0" parent="eEPcVRElHBAGuMocAx3j-40">
          <mxGeometry x="-0.5668" y="-1" relative="1" as="geometry">
            <mxPoint as="offset" />
          </mxGeometry>
        </mxCell>
        <mxCell id="eEPcVRElHBAGuMocAx3j-35" value="" style="shape=xor;whiteSpace=wrap;html=1;rotation=-180;" vertex="1" parent="1">
          <mxGeometry x="1210" y="390" width="60" height="80" as="geometry" />
        </mxCell>
        <mxCell id="eEPcVRElHBAGuMocAx3j-36" value="" style="endArrow=none;html=1;rounded=1;entryX=0.175;entryY=0.75;entryDx=0;entryDy=0;startArrow=oval;startFill=1;fillColor=#e51400;strokeColor=#B20000;strokeWidth=2;entryPerimeter=0;endFill=0;edgeStyle=orthogonalEdgeStyle;" edge="1" parent="1">
          <mxGeometry width="50" height="50" relative="1" as="geometry">
            <mxPoint x="1470" y="621" as="sourcePoint" />
            <mxPoint x="1259.5" y="411" as="targetPoint" />
            <Array as="points">
              <mxPoint x="1470" y="621" />
              <mxPoint x="1470" y="411" />
            </Array>
          </mxGeometry>
        </mxCell>
        <mxCell id="eEPcVRElHBAGuMocAx3j-37" value="Read Address Selector" style="edgeLabel;html=1;align=center;verticalAlign=middle;resizable=0;points=[];fontSize=13;" vertex="1" connectable="0" parent="eEPcVRElHBAGuMocAx3j-36">
          <mxGeometry x="-0.1965" y="-1" relative="1" as="geometry">
            <mxPoint x="2" y="45" as="offset" />
          </mxGeometry>
        </mxCell>
        <mxCell id="eEPcVRElHBAGuMocAx3j-38" value="" style="endArrow=none;html=1;rounded=1;entryX=0.175;entryY=0.75;entryDx=0;entryDy=0;startArrow=oval;startFill=1;fillColor=#e51400;strokeColor=#B20000;strokeWidth=2;entryPerimeter=0;endFill=0;edgeStyle=orthogonalEdgeStyle;" edge="1" parent="1">
          <mxGeometry width="50" height="50" relative="1" as="geometry">
            <mxPoint x="1360" y="625" as="sourcePoint" />
            <mxPoint x="1260" y="451" as="targetPoint" />
            <Array as="points">
              <mxPoint x="1360" y="451" />
            </Array>
          </mxGeometry>
        </mxCell>
        <mxCell id="eEPcVRElHBAGuMocAx3j-39" value="Write Address Selector" style="edgeLabel;html=1;align=center;verticalAlign=middle;resizable=0;points=[];fontSize=13;" vertex="1" connectable="0" parent="eEPcVRElHBAGuMocAx3j-38">
          <mxGeometry x="-0.1965" y="-1" relative="1" as="geometry">
            <mxPoint x="9" y="15" as="offset" />
          </mxGeometry>
        </mxCell>
      </root>
    </mxGraphModel>
  </diagram>
</mxfile>
